<svg width="24" height="24" viewBox="0 0 24 24" fill="none" xmlns="http://www.w3.org/2000/svg">
<path d="M9.35156 4.05667C9.62344 4.15042 9.91875 4.49261 9.97969 4.78324C10.0359 5.04574 10.0078 5.2473 9.88594 5.48636C9.83906 5.57542 8.61094 6.84105 7.15312 8.29886L4.5 10.9473L13.3922 10.9707L22.2891 10.9942L22.5 11.1114C22.6125 11.177 22.7719 11.3223 22.8516 11.4301C22.9781 11.6176 22.9922 11.6692 22.9922 12.002C22.9922 12.3348 22.9781 12.3864 22.8516 12.5739C22.7719 12.6817 22.6125 12.827 22.5 12.8926L22.2891 13.0098L13.3922 13.0332L4.5 13.0567L7.17656 15.7285C8.98125 17.5332 9.88125 18.4614 9.94219 18.5879C10.1719 19.0754 9.95625 19.6707 9.45937 19.9285C9.24375 20.0364 8.83125 20.0457 8.5875 19.9473C8.34844 19.8442 1.20937 12.7145 1.07812 12.4426C0.956249 12.1942 0.956249 11.8098 1.07812 11.5614C1.13906 11.4301 2.3625 10.1785 4.81406 7.73167C7.97344 4.58167 8.48906 4.08949 8.65312 4.04261C8.90625 3.9723 9.11719 3.97699 9.35156 4.05667Z" fill="#FFB803"/>
</svg>
