<svg width="32" height="32" viewBox="0 0 32 32" fill="none" xmlns="http://www.w3.org/2000/svg">
<g clip-path="url(#clip0_31_14329)">
<path d="M1.08134 0.0809345C0.976789 0.204111 0.972244 2.90244 1.07225 3.02177C1.13588 3.09106 1.19043 3.09491 1.89045 3.08336C2.73137 3.06796 2.70865 3.06026 2.57683 3.33356C2.48591 3.51448 2.48137 4.25739 2.57228 4.43445C2.72228 4.73854 3.08593 5.01184 3.50866 5.14657L3.75867 5.22355L3.7814 13.1453C3.79503 17.5066 3.82685 21.1172 3.84504 21.1749C3.86322 21.2326 3.92231 21.3096 3.96777 21.3443C4.04959 21.4097 4.05413 21.5213 4.05413 24.8856C4.05413 27.992 4.04504 28.3653 3.9814 28.4192C3.92231 28.4731 3.72231 28.4808 2.51319 28.4808C1.49044 28.4808 1.10406 28.4924 1.06315 28.527C1.02224 28.5616 1.00861 28.9235 1.00861 29.9243C1.00861 31.1868 1.01315 31.2831 1.09043 31.3408C1.1677 31.4024 2.23136 31.4062 15.4589 31.4062C28.8729 31.4062 29.7547 31.4024 29.8774 31.3408C29.9502 31.3023 30.0093 31.2561 30.0138 31.233C30.032 31.0791 30.0002 28.5424 29.982 28.5155C29.9684 28.4962 29.1774 28.4808 28.2229 28.4808C27.2683 28.4808 26.4592 28.4654 26.4274 28.45C26.3819 28.4231 26.3774 27.684 26.3955 24.8009C26.4092 22.8147 26.4274 17.5874 26.441 13.1915L26.4637 5.19661L26.6365 5.17351C26.9819 5.12732 27.1956 5.07343 27.3365 5.00029C27.4137 4.9618 27.4956 4.93486 27.5183 4.9464C27.5365 4.95795 27.5547 8.74948 27.5547 13.3763V21.7869L27.4183 21.9101C27.0456 22.2527 26.9228 22.3913 26.8774 22.5337C26.8456 22.6261 26.8274 23.0649 26.8274 23.6423C26.8274 24.7162 26.8365 24.7547 27.1456 24.9934C27.3728 25.1666 27.741 25.2436 28.0183 25.1743C28.2729 25.1089 28.4092 25.028 28.5592 24.8471L28.6911 24.697V23.623C28.6911 22.4798 28.682 22.4298 28.4638 22.2642C28.4047 22.2219 28.332 22.1295 28.2956 22.0564C28.2592 21.9871 28.191 21.9217 28.141 21.9101C28.0956 21.8986 28.0456 21.8524 28.0319 21.8062C28.0183 21.7638 28.0047 17.93 27.9956 13.2955C27.9865 6.44377 27.9729 4.83862 27.9229 4.71545C27.8729 4.58457 27.8774 4.53838 27.941 4.35362C28.041 4.09572 28.0138 3.48368 27.9001 3.25658L27.8274 3.11415H28.6547C29.1138 3.11031 29.5774 3.09491 29.682 3.07951C30.0411 3.02177 30.0229 3.10261 30.0184 1.49746C30.0138 0.712214 30.0002 0.0501404 29.9865 0.0308933C29.9684 0.0116463 24.4364 -0.00374985 15.5544 -0.00374985H1.14952L1.08134 0.0809345ZM25.2501 0.41967H29.4183V1.49361C29.4183 2.44438 29.4093 2.57141 29.3411 2.6176C29.282 2.66379 27.0865 2.67149 15.4771 2.68304C5.95417 2.68689 1.65862 2.67919 1.59953 2.65224C1.51316 2.61375 1.50862 2.56371 1.50862 1.65528C1.50862 0.843088 1.53589 0.519751 1.61317 0.450462C1.66317 0.41197 4.41323 0.400423 12.0089 0.41197C16.9953 0.415819 22.9546 0.41967 25.2501 0.41967ZM26.9637 3.03717C27.2774 3.09876 27.3637 3.1488 27.4865 3.36051C27.791 3.89171 27.5956 4.51529 27.0456 4.74624L26.8092 4.84632H15.3089C5.74508 4.84247 3.77685 4.83478 3.63139 4.79243C3.32684 4.70005 3.10866 4.54223 2.98138 4.32282C2.87683 4.14191 2.8632 4.08032 2.87683 3.81472C2.89501 3.54142 2.9132 3.49138 3.0632 3.29507C3.20866 3.11031 3.25866 3.07566 3.42684 3.04487C3.69958 2.99098 26.691 2.98713 26.9637 3.03717ZM5.8269 24.289C5.84508 26.841 5.85872 27.403 5.91326 27.4531C5.96781 27.5146 6.67692 27.5185 15.2544 27.5185C22.4136 27.5185 24.55 27.5069 24.591 27.4723C24.6319 27.4377 24.6455 26.6794 24.6455 24.2967V21.1672H25.3046H25.9637V24.7817C25.9637 27.634 25.9501 28.4077 25.9092 28.4308C25.8455 28.4654 5.22234 28.4847 4.7496 28.4539L4.46323 28.4346V24.8009V21.1634L5.13597 21.1749L5.80417 21.1865L5.8269 24.289ZM24.0546 24.0926V27.0181L23.9364 27.0566C23.7818 27.1066 6.51328 27.1066 6.41782 27.0566C6.35873 27.0258 6.34964 26.6524 6.336 24.1465C6.32691 22.0371 6.34055 21.2596 6.37691 21.2211C6.42237 21.1749 7.81785 21.1672 15.2407 21.1672H24.0546V24.0926ZM27.8683 22.4144C27.8956 22.4413 27.9683 22.4567 28.0274 22.449C28.1047 22.4336 28.1547 22.4567 28.2092 22.5183C28.2729 22.5953 28.282 22.7454 28.282 23.5845V24.5623L28.1274 24.6931C28.0001 24.8009 27.9365 24.824 27.7819 24.824C27.6274 24.824 27.5638 24.8009 27.4365 24.6931L27.2819 24.5623V23.573V22.5837L27.4137 22.4721C27.5592 22.3489 27.7774 22.322 27.8683 22.4144ZM29.3956 29.9243V30.9212L29.282 30.9482C29.2183 30.9636 22.9773 30.9751 15.4089 30.979C2.95865 30.9828 1.64499 30.979 1.58135 30.9212C1.47225 30.8327 1.47225 29.1159 1.58135 28.9889L1.64953 28.9042L15.5226 28.9119L29.3956 28.9235V29.9243Z" fill="black"/>
<path d="M15.3125 9.28906V9.78125H15.5703H15.8281V9.28906V8.79687H15.5703H15.3125V9.28906Z" fill="white"/>
<path d="M11.5117 9.79297L11.3359 9.96875L11.6875 10.3203L12.0391 10.6719L12.2078 10.5031C12.3016 10.4094 12.3789 10.3227 12.3789 10.3086C12.3789 10.2852 11.7227 9.61719 11.6992 9.61719C11.6922 9.61719 11.6078 9.69687 11.5117 9.79297Z" fill="white"/>
<path d="M19.0789 9.96406L18.7344 10.3086L18.9172 10.4914L19.0977 10.6719L19.4492 10.3203L19.8008 9.96875L19.625 9.79297C19.5289 9.69687 19.4445 9.61719 19.4375 9.61719C19.4305 9.61719 19.2688 9.77187 19.0789 9.96406Z" fill="white"/>
<path d="M15.1174 10.4906C14.1377 10.5656 13.1768 10.9102 12.2745 11.5102C11.5268 12.007 10.7557 12.7594 10.1651 13.5703C10.0081 13.7859 9.98696 13.8258 10.0057 13.8703C10.0198 13.8984 10.1182 14.0461 10.226 14.1961C11.2409 15.6094 12.5838 16.6008 14.0088 16.9922C14.5901 17.1516 14.8245 17.1797 15.5557 17.1797C16.1417 17.1797 16.2448 17.1727 16.5167 17.1234C18.1784 16.8258 19.7112 15.7969 20.9229 14.168C21.0237 14.032 21.1151 13.8984 21.1292 13.8703C21.1479 13.8281 21.1245 13.7812 20.9627 13.5539C20.6674 13.1414 20.4799 12.9164 20.1495 12.5766C18.9143 11.3062 17.5081 10.6055 15.9659 10.4883C15.6143 10.4625 15.4831 10.4625 15.1174 10.4906ZM16.1463 11.5078C16.4088 11.5734 16.7534 11.7328 16.9596 11.8805C17.1284 12.0023 17.4096 12.2812 17.5268 12.4453C17.6557 12.6258 17.8104 12.9492 17.876 13.1766C18.0448 13.7531 17.9932 14.332 17.7237 14.8828C17.2151 15.9281 16.0409 16.4648 14.9299 16.1578C14.7237 16.0992 14.4237 15.9633 14.2385 15.8391C14.0604 15.7219 13.7838 15.4594 13.6409 15.2695C13.4979 15.082 13.3127 14.707 13.2495 14.4773C13.0596 13.7836 13.1932 13.0289 13.6104 12.4453C13.7299 12.2789 14.0088 12 14.1729 11.8805C14.4565 11.6789 14.9065 11.4984 15.2627 11.4492C15.4995 11.4164 15.8838 11.4422 16.1463 11.5078Z" fill="white"/>
<path d="M15.2434 12.4169C14.7208 12.5317 14.2591 12.9958 14.1489 13.5208C13.9731 14.3505 14.5473 15.1567 15.3911 15.2692C15.8481 15.3302 16.3216 15.1567 16.638 14.8099C16.8817 14.5427 16.9966 14.252 17.0153 13.8442L17.027 13.5841L16.7809 13.5724C16.57 13.563 16.5138 13.5513 16.3825 13.4903C16.0122 13.3169 15.8247 13.0099 15.8247 12.5763V12.3817L15.6091 12.3841C15.4895 12.3841 15.3255 12.4005 15.2434 12.4169Z" fill="white"/>
<path d="M11.6875 17.3555L11.3359 17.707L11.5188 17.8875L11.6992 18.0703L12.0391 17.7305C12.2266 17.543 12.3789 17.3812 12.3789 17.3672C12.3789 17.3531 12.3016 17.2664 12.2078 17.1727L12.0391 17.0039L11.6875 17.3555Z" fill="white"/>
<path d="M18.9148 17.1867L18.7344 17.3672L19.0859 17.7188L19.4375 18.0703L19.618 17.8875L19.8008 17.707L19.4492 17.3555L19.0977 17.0039L18.9148 17.1867Z" fill="white"/>
<path d="M15.3125 18.3828V18.875H15.5703H15.8281V18.3828V17.8906H15.5703H15.3125V18.3828Z" fill="white"/>
</g>
<defs>
<clipPath id="clip0_31_14329">
<rect width="32" height="32" fill="white"/>
</clipPath>
</defs>
</svg>
