<svg width="32" height="32" viewBox="0 0 32 32" fill="none" xmlns="http://www.w3.org/2000/svg">
<path d="M3.27159 1.67439C3.17857 1.78605 3.17452 4.23205 3.2635 4.34022C3.32013 4.40303 3.36866 4.40652 3.99153 4.39605C4.73979 4.38209 4.71957 4.37511 4.60227 4.62285C4.52138 4.78685 4.51733 5.46029 4.59823 5.62079C4.7317 5.89645 5.05527 6.14419 5.43142 6.26631L5.65387 6.3361L5.67409 13.5171C5.68623 17.4705 5.71454 20.7434 5.73072 20.7958C5.7469 20.8481 5.79948 20.9179 5.83992 20.9493C5.91273 21.0086 5.91677 21.1098 5.91677 24.1594C5.91677 26.9753 5.90868 27.3138 5.85206 27.3626C5.79948 27.4115 5.62151 27.4184 4.54565 27.4184C3.63561 27.4184 3.29182 27.4289 3.25541 27.4603C3.21901 27.4917 3.20688 27.8197 3.20688 28.7269C3.20688 29.8714 3.21092 29.9587 3.27968 30.011C3.34844 30.0668 4.29488 30.0703 16.0647 30.0703C28.0004 30.0703 28.785 30.0668 28.8942 30.011C28.959 29.9761 29.0115 29.9342 29.0156 29.9133C29.0318 29.7737 29.0034 27.4743 28.9873 27.4498C28.9751 27.4324 28.2714 27.4184 27.422 27.4184C26.5726 27.4184 25.8527 27.4045 25.8244 27.3905C25.7839 27.3661 25.7799 26.6962 25.7961 24.0827C25.8082 22.2822 25.8244 17.5437 25.8365 13.5589L25.8567 6.31167L26.0104 6.29074C26.3178 6.24887 26.5079 6.20002 26.6333 6.13372C26.7021 6.09883 26.7749 6.0744 26.7951 6.08487C26.8113 6.09534 26.8274 9.5323 26.8274 13.7264V21.3506L26.7061 21.4622C26.3744 21.7728 26.2652 21.8984 26.2248 22.0275C26.1965 22.1112 26.1803 22.509 26.1803 23.0324C26.1803 24.0059 26.1884 24.0408 26.4634 24.2571C26.6657 24.4142 26.9933 24.4839 27.24 24.4211C27.4665 24.3618 27.5878 24.2885 27.7213 24.1245L27.8386 23.9885V23.0149C27.8386 21.9786 27.8305 21.9333 27.6364 21.7832C27.5838 21.7448 27.5191 21.6611 27.4867 21.5948C27.4544 21.532 27.3937 21.4727 27.3492 21.4622C27.3088 21.4517 27.2643 21.4099 27.2521 21.368C27.24 21.3296 27.2279 17.8543 27.2198 13.6532C27.2117 7.44221 27.1995 5.98717 27.1551 5.87551C27.1106 5.75688 27.1146 5.715 27.1712 5.54752C27.2602 5.31373 27.236 4.75894 27.1348 4.55307L27.0701 4.42396H27.8062C28.2147 4.42047 28.6273 4.40652 28.7203 4.39256C29.0399 4.34022 29.0237 4.4135 29.0196 2.95846C29.0156 2.24664 29.0034 1.64648 28.9913 1.62903C28.9751 1.61159 24.0528 1.59763 16.1497 1.59763H3.33226L3.27159 1.67439ZM24.7768 1.98145H28.4857V2.95497C28.4857 3.81683 28.4776 3.93197 28.417 3.97384C28.3644 4.01571 26.4108 4.02269 16.0809 4.03316C7.60742 4.03665 3.78526 4.02967 3.73268 4.00525C3.65583 3.97035 3.65179 3.92499 3.65179 3.10152C3.65179 2.36528 3.67605 2.07218 3.74481 2.00937C3.7893 1.97448 6.2363 1.96401 12.9949 1.97448C17.4318 1.97796 22.7343 1.98145 24.7768 1.98145ZM26.3016 4.35418C26.5807 4.41001 26.6576 4.45537 26.7668 4.64728C27.0378 5.1288 26.8638 5.69407 26.3744 5.90343L26.1641 5.99415H15.9312C7.42137 5.99066 5.67005 5.98368 5.54062 5.9453C5.26963 5.86156 5.07549 5.71849 4.96224 5.5196C4.86922 5.35561 4.85708 5.29978 4.86922 5.05902C4.88539 4.81128 4.90157 4.76591 5.03505 4.58796C5.16447 4.42047 5.20896 4.38907 5.35861 4.36116C5.60129 4.31231 26.059 4.30882 26.3016 4.35418ZM7.49417 23.6186C7.51035 25.932 7.52249 26.4414 7.57102 26.4868C7.61956 26.5426 8.25052 26.5461 15.8827 26.5461C22.253 26.5461 24.154 26.5357 24.1904 26.5042C24.2268 26.4728 24.2389 25.7855 24.2389 23.6256V20.7888H24.8254H25.4118V24.0652C25.4118 26.6508 25.3997 27.3521 25.3633 27.3731C25.3067 27.4045 6.95624 27.4219 6.5356 27.394L6.28079 27.3766V24.0827V20.7853L6.87939 20.7958L7.47395 20.8062L7.49417 23.6186ZM23.7131 23.4406V26.0925L23.6079 26.1274C23.4704 26.1728 8.10491 26.1728 8.01997 26.1274C7.96739 26.0995 7.9593 25.761 7.94717 23.4895C7.93908 21.5774 7.95121 20.8725 7.98357 20.8376C8.02402 20.7958 9.26572 20.7888 15.8706 20.7888H23.7131V23.4406ZM27.1065 21.9193C27.1308 21.9437 27.1955 21.9577 27.2481 21.9507C27.3168 21.9368 27.3613 21.9577 27.4099 22.0135C27.4665 22.0833 27.4746 22.2194 27.4746 22.9801V23.8663L27.3371 23.985C27.2238 24.0827 27.1672 24.1036 27.0297 24.1036C26.8922 24.1036 26.8355 24.0827 26.7223 23.985L26.5848 23.8663V22.9696V22.0728L26.7021 21.9716C26.8315 21.86 27.0256 21.8356 27.1065 21.9193ZM28.4655 28.7269V29.6307L28.3644 29.6551C28.3078 29.669 22.7545 29.6795 16.0202 29.683C4.94202 29.6865 3.77312 29.683 3.7165 29.6307C3.61943 29.5504 3.61943 27.9942 3.7165 27.879L3.77717 27.8023L16.1213 27.8092L28.4655 27.8197V28.7269Z" fill="black"/>
<circle cx="24" cy="14.7969" r="7.75" fill="white" stroke="black" stroke-width="0.5"/>
<path d="M23.5195 8.43595C21.7043 8.64854 20.0579 9.5539 18.9524 10.942C18.3509 11.6973 17.9261 12.5901 17.7282 13.5205C17.6306 13.9857 17.6016 14.2783 17.6016 14.801C17.6016 15.6464 17.7388 16.3616 18.0501 17.1269C18.9551 19.3528 21.1476 20.936 23.662 21.1786C24.1607 21.2286 25.0788 21.1986 25.5511 21.1211C26.9046 20.8935 28.1236 20.2957 29.0866 19.3804C29.4296 19.0552 29.638 18.8126 29.9177 18.415C30.1235 18.1248 30.4216 17.6096 30.4005 17.5871C30.3926 17.5821 30.2844 17.6171 30.1578 17.6647C29.8702 17.7772 29.4216 17.8873 29.0523 17.9373C28.6723 17.9923 27.8676 17.9923 27.4851 17.9398C25.5353 17.6672 23.9153 16.4142 23.2399 14.6585C22.8705 13.6931 22.8309 12.6702 23.129 11.6622C23.509 10.3692 24.3955 9.26879 25.6144 8.57851C25.7252 8.51598 25.7833 8.47097 25.7595 8.46346C25.5432 8.39844 24.0024 8.38093 23.5195 8.43595Z" fill="black"/>
</svg>
