<svg width="19" height="16" viewBox="0 0 19 16" fill="none" xmlns="http://www.w3.org/2000/svg">
<path d="M1.73432 0.0381489C1.73432 0.0612688 1.77732 0.130628 1.83465 0.195363C1.98754 0.389568 2.24076 0.958314 2.32676 1.31436C2.47487 1.92472 2.49875 2.29001 2.49875 3.93613V5.5915H1.60532C0.621105 5.5915 0.501662 5.56376 0.162443 5.28632L0 5.15223L0.0286664 5.56838C0.071666 6.22036 0.324886 6.7105 0.764437 6.97869C1.08455 7.17752 1.25177 7.20988 1.91587 7.20988H2.49875V8.0052V8.80514L1.59576 8.7959C0.61155 8.78665 0.511217 8.76353 0.162443 8.48147L0.0143332 8.35662V8.65255C0.0143332 9.2398 0.243664 9.76692 0.644994 10.0998C0.941213 10.3403 1.1801 10.4004 1.8872 10.4004H2.49875V12.1205C2.49875 13.9978 2.46053 14.4001 2.2312 15.066C2.09742 15.4498 1.9732 15.6717 1.78687 15.8705L1.66265 16L5.3415 15.9815C9.25925 15.963 9.31658 15.9584 10.5253 15.7179C10.8025 15.6625 11.2754 15.533 11.5764 15.4313C13.9701 14.6221 15.4846 13.0823 16.1678 10.7564L16.273 10.4004H17.2333C17.7636 10.4004 18.2748 10.4235 18.3704 10.4466C18.4707 10.4744 18.6475 10.5715 18.7717 10.6593L18.9915 10.8258L18.9724 10.368C18.958 9.975 18.9342 9.87328 18.8147 9.6467C18.6523 9.33227 18.3513 9.04559 18.0359 8.90687C17.8448 8.82364 17.7158 8.80514 17.1712 8.7959L16.531 8.79127L16.5262 8.00058L16.5214 7.20988H17.4053C18.2318 7.20988 18.3035 7.21913 18.528 7.32086C18.6618 7.38097 18.8099 7.47345 18.8577 7.52894C18.9103 7.5798 18.9628 7.62604 18.9819 7.62604C19.0106 7.62604 19.0058 7.32548 18.9628 6.93245C18.915 6.4608 18.5567 5.97067 18.0981 5.73947C17.8735 5.62387 17.8114 5.61462 17.0661 5.60075L16.2682 5.58226L16.0771 5.01351C15.7044 3.90376 15.1789 3.06683 14.3714 2.28076C12.9477 0.898202 11.0748 0.190739 8.44703 0.0381489C7.53926 -0.0127144 1.73432 -0.0127144 1.73432 0.0381489ZM8.59992 0.879705C10.7642 1.1109 12.2406 2.15129 12.9763 3.95001C13.134 4.33842 13.4398 5.37418 13.4398 5.52677C13.4398 5.58226 12.8473 5.5915 9.21147 5.5915H4.98318V3.21017V0.828844H6.55983C7.42937 0.828844 8.3467 0.851962 8.59992 0.879705ZM13.6309 7.99595C13.6309 8.59244 13.6165 8.78202 13.5735 8.78202C13.5401 8.78202 11.5908 8.78665 9.24491 8.7959L4.98318 8.80514V8.0052V7.20988H9.30702H13.6309V7.99595ZM13.4398 10.4513C13.4398 10.5576 13.1435 11.6165 13.0528 11.8477C12.2167 13.9007 10.6878 14.9319 8.13648 15.1584C7.83548 15.1862 6.99938 15.2093 6.2875 15.2093H4.98318V12.8049V10.4004H9.21147C12.1546 10.4004 13.4398 10.4143 13.4398 10.4513Z" fill="black"/>
</svg>
