<svg width="88" height="87" viewBox="0 0 88 87" fill="none" xmlns="http://www.w3.org/2000/svg">
<path d="M1 63.7757C1.30915 62.8889 1.8833 61.1595 3.03158 59.7406C4.17987 57.7008 4.48902 57.1244 3.03158 55.395C0.425857 52.2023 0.425857 48.4776 3.03158 45.2849C4.48902 43.5555 4.48902 42.6687 3.03158 41.2497C0.425857 38.057 0.425857 34.3323 3.03158 31.1396C4.48902 29.4102 4.48902 28.5234 3.03158 27.1044C0.425857 23.9117 0.425857 20.187 3.03158 16.9943C4.17987 15.531 4.17987 14.3781 3.03158 12.9591C0.160868 9.45606 0.425857 5.42088 3.29657 2.22822C6.16729 -0.654053 10.4954 -0.654053 13.6753 1.96216C15.1327 3.11507 16.281 3.11507 17.6943 1.96216C20.8742 -0.654053 24.584 -0.654053 27.7639 1.96216C29.4863 3.42547 30.3696 3.42547 31.7829 1.96216C34.9628 -0.654053 38.7168 -0.654053 41.8525 1.96216C43.5749 3.42547 44.4582 3.42547 45.8715 1.96216C49.0514 -0.654053 52.7612 -0.654053 55.9411 1.96216C57.6635 3.42547 58.5468 3.42547 59.9601 1.96216C63.4049 -0.654053 67.4239 -0.654053 70.3388 2.27256C73.2537 5.19917 73.5187 9.5004 70.648 12.6931C69.4997 14.1564 69.1905 15.5753 70.3388 16.7282C71.4871 17.8812 72.9445 17.8812 74.3578 16.7282C77.5377 14.112 81.8217 14.112 84.7365 17.0386C87.6514 19.9653 87.6073 24.2665 85.0457 27.4592C83.5883 29.1885 83.5883 30.0754 85.0457 31.8047C87.6514 34.9974 87.6514 38.7222 85.0457 41.9148C83.5883 43.6442 83.5883 44.5311 85.0457 45.95C87.6514 49.1427 87.6514 52.8675 85.0457 56.0601C83.5883 57.7895 83.5883 58.6763 85.0457 60.0953C87.6514 63.288 87.6514 67.0128 85.0457 70.2054C83.8974 71.6687 83.8974 72.8216 85.0457 74.2406C87.6514 77.6993 87.6514 81.7345 84.7365 84.6611C81.8217 87.5877 77.5377 87.8538 74.0928 84.9715C72.6354 83.8186 71.4871 83.8186 70.0738 84.9715C66.894 87.5877 63.1841 87.5877 60.0042 84.9715C58.2818 83.8186 57.3985 83.8186 55.9852 84.9715C52.8054 87.5877 49.0955 87.5877 45.9156 84.9715C44.1932 83.5082 43.3099 83.5082 41.8966 84.9715C38.7168 87.5877 35.0069 87.5877 31.8271 84.9715C30.1046 83.5082 29.2213 83.5082 27.8081 84.9715C24.6282 87.5877 20.3442 87.5877 17.4293 84.6611C14.5144 81.7345 14.2495 77.4333 17.1202 74.2406C18.2685 72.7773 18.5776 71.3583 17.1202 70.2054C15.9719 69.0525 14.8236 69.0525 13.1012 70.5158C11.3787 72.8216 8.50802 73.132 5.63731 71.6687C2.72243 70.4271 1.30915 67.8109 1 63.7757ZM8.77301 4.53403C7.88972 5.11048 6.74143 5.68694 6.74143 6.26339C6.43228 7.15024 6.74143 8.56921 7.31557 9.14566C9.9213 12.9148 10.1863 16.0631 7.31557 19.5662C6.16729 21.0295 6.16729 21.872 7.31557 23.6014C10.1863 27.0601 10.1863 30.5188 7.31557 34.0219C6.16729 35.4852 6.16729 36.3277 7.31557 38.057C10.1863 41.5158 10.1863 44.9745 7.31557 48.4776C6.16729 49.9409 6.16729 51.0938 7.31557 52.2467C10.1863 55.7054 10.1863 59.1641 7.31557 62.6672C6.16729 64.1305 6.16729 65.2834 7.31557 66.4363C8.46386 67.5892 9.61214 67.5892 11.0696 66.4363C14.5144 63.554 17.9593 63.554 21.4483 66.4363C23.1708 67.5892 23.7449 67.5892 25.4673 66.4363C28.6472 63.8201 32.357 63.8201 35.5369 66.4363C37.2593 67.5892 37.8335 67.5892 39.5559 66.4363C42.7358 63.8201 46.4456 63.8201 49.6255 66.4363C51.3479 67.8996 51.9221 67.8996 53.6445 66.4363C56.8244 63.8201 60.5342 63.8201 63.7141 66.4363C65.1715 67.5892 66.5848 67.5892 67.7331 66.7467C68.8814 65.5938 68.6164 64.4409 67.4239 62.9776C64.8182 59.7849 64.8182 56.0601 67.4239 52.8675C68.8814 51.1381 68.8814 50.2513 67.4239 48.5219C64.8182 45.3292 64.8182 41.6044 67.4239 38.4118C68.8814 36.6824 68.8814 35.7956 67.4239 34.0662C64.8182 30.8735 64.8182 27.1488 67.4239 23.9561C68.8814 22.2267 68.8814 21.6503 67.4239 19.6105C64.8182 16.4178 64.8182 12.6931 67.4239 9.5004C68.5722 8.0371 68.5722 6.88419 67.7331 5.73128C66.5848 4.57837 65.4365 4.57837 63.7141 6.04168C60.5342 8.65789 56.8244 8.65789 53.6445 6.04168C51.9221 4.57837 51.3479 4.57837 49.6255 6.04168C46.4456 8.65789 42.7358 8.65789 39.5559 6.04168C37.8335 4.57837 36.9502 4.57837 35.5369 6.04168C32.0921 8.65789 28.6472 8.65789 25.1582 6.04168C23.7007 4.88877 22.8616 4.88877 21.1392 6.04168C17.6943 8.92395 14.2495 8.92395 10.7604 6.04168C10.2305 5.42088 9.65631 5.11048 8.77301 4.53403ZM24.319 72.7329C23.4357 74.1963 22.8616 75.9256 21.7133 77.3446C20.83 78.8079 20.565 79.9608 21.7133 81.1137C22.8616 82.2666 24.0099 82.2666 25.4673 81.1137C28.9122 78.2314 32.357 78.2314 35.8461 81.1137C37.5685 82.577 38.1426 82.2666 39.8651 81.1137C43.0449 78.4975 46.7548 78.4975 49.9347 81.1137C51.6571 82.577 52.2312 82.577 53.9537 81.1137C57.1335 78.4975 60.8434 78.4975 64.0232 81.1137C65.7457 82.577 66.3198 82.577 68.0422 81.1137C71.2221 78.4975 74.932 78.4975 78.1118 81.1137C79.5693 82.2666 80.9825 82.577 82.1308 81.4241C83.2791 80.2712 83.0141 79.1183 81.8217 77.3889C79.2159 74.1963 79.2159 70.4715 81.8217 67.2788C83.2791 65.5494 83.2791 64.6626 81.8217 62.9332C79.2159 59.7406 79.2159 56.0158 81.8217 52.8231C83.2791 51.0938 83.2791 50.5173 81.8217 48.7879C79.2159 45.5953 79.2159 41.8705 81.8217 38.6778C83.2791 36.9485 83.2791 36.0616 81.8217 34.6427C80.0992 32.6029 79.2159 30.031 80.0992 27.4148C80.4084 26.2619 81.2475 25.109 82.1308 23.9561C83.2791 22.4928 83.2791 21.3399 82.1308 20.4974C80.9825 19.3445 79.8343 19.3445 78.686 20.187C78.3768 20.4974 77.8027 21.0738 77.5377 21.0738C76.0802 21.6503 74.667 21.9607 73.5187 22.8032C72.6354 23.69 72.3704 25.4194 71.4871 26.5723C70.0297 28.6121 70.0297 29.1885 71.4871 31.1839C73.7837 34.0662 73.7837 37.8353 71.4871 41.028C70.0297 43.0678 70.0297 43.6442 71.4871 45.6396C73.7837 48.5219 73.7837 52.291 71.4871 55.4837C69.7647 57.5234 69.7647 58.0999 71.4871 60.0953C72.9445 62.1351 73.5187 64.1305 72.9445 66.7467C71.4871 72.2452 64.9065 74.551 60.5784 70.7819C58.856 69.3186 57.9727 69.3186 56.2502 70.7819C52.8054 73.3981 49.3605 73.3981 45.8715 70.7819C44.7232 69.895 43.5749 69.629 42.1175 70.4715C38.0985 73.6641 35.4927 73.6641 31.1646 70.4715C30.0163 69.5846 29.133 69.5846 27.9847 70.4715C27.1898 71.0036 25.4673 71.8904 24.319 72.7329Z" fill="#FFB803"/>
<path d="M38.9073 25.5349H36.5312V47.2849H38.9073V25.5349Z" fill="#FFB803"/>
<path d="M48.7891 35.0612H26.7891V37.4102H48.7891V35.0612Z" fill="#FFB803"/>
</svg>
