<svg width="20" height="20" viewBox="0 0 20 20" fill="none" xmlns="http://www.w3.org/2000/svg">
<path d="M11.6641 15.0007V5.00065C11.6641 4.55862 11.4885 4.1347 11.1759 3.82214C10.8633 3.50958 10.4394 3.33398 9.9974 3.33398H3.33073C2.8887 3.33398 2.46478 3.50958 2.15222 3.82214C1.83966 4.1347 1.66406 4.55862 1.66406 5.00065V14.1673C1.66406 14.3883 1.75186 14.6003 1.90814 14.7566C2.06442 14.9129 2.27638 15.0007 2.4974 15.0007H4.16406" stroke="#FEBC06" stroke-width="1.66667" stroke-linecap="round" stroke-linejoin="round"/>
<path d="M12.5 15H7.5" stroke="#FEBC06" stroke-width="1.66667" stroke-linecap="round" stroke-linejoin="round"/>
<path d="M15.8307 14.9993H17.4974C17.7184 14.9993 17.9304 14.9116 18.0867 14.7553C18.2429 14.599 18.3307 14.387 18.3307 14.166V11.1243C18.3304 10.9352 18.2657 10.7519 18.1474 10.6043L15.2474 6.97935C15.1695 6.88175 15.0706 6.80292 14.9581 6.74868C14.8456 6.69445 14.7223 6.66619 14.5974 6.66602H11.6641" stroke="#FEBC06" stroke-width="1.66667" stroke-linecap="round" stroke-linejoin="round"/>
<path d="M14.1667 16.6673C15.0871 16.6673 15.8333 15.9211 15.8333 15.0007C15.8333 14.0802 15.0871 13.334 14.1667 13.334C13.2462 13.334 12.5 14.0802 12.5 15.0007C12.5 15.9211 13.2462 16.6673 14.1667 16.6673Z" stroke="#FEBC06" stroke-width="1.66667" stroke-linecap="round" stroke-linejoin="round"/>
<path d="M5.83073 16.6673C6.7512 16.6673 7.4974 15.9211 7.4974 15.0007C7.4974 14.0802 6.7512 13.334 5.83073 13.334C4.91025 13.334 4.16406 14.0802 4.16406 15.0007C4.16406 15.9211 4.91025 16.6673 5.83073 16.6673Z" stroke="#FEBC06" stroke-width="1.66667" stroke-linecap="round" stroke-linejoin="round"/>
</svg>
