<svg width="130" height="59" viewBox="0 0 130 59" fill="none" xmlns="http://www.w3.org/2000/svg">
<path d="M19.2864 33.5056C19.9164 33.1856 20.5564 33.0256 21.2064 33.0156C21.8564 33.0156 22.4264 33.1656 22.9264 33.4856C23.4164 33.7956 23.7664 34.2256 23.9664 34.7656C24.1664 35.3056 24.2064 35.8956 24.0564 36.5256L23.0564 40.9756H20.3064L21.3664 36.2456C21.4264 35.9956 21.3764 35.7856 21.2464 35.6256C21.1064 35.4556 20.9164 35.3756 20.6664 35.3756C20.4164 35.3756 20.1964 35.4656 19.9864 35.6256C19.7764 35.7956 19.6464 36.0056 19.5864 36.2556L18.3364 41.4556C18.2964 41.6956 18.3364 41.8956 18.4464 42.0556C18.5664 42.2156 18.7464 42.2856 18.9864 42.2756L19.5064 42.2556C20.2664 42.2356 20.8764 42.4056 21.3164 42.7756C21.6664 43.0756 21.9064 43.5156 22.0364 44.0956C22.1664 44.6756 22.1564 45.2856 22.0164 45.9256L20.7064 51.3956V51.4156C20.5164 52.0056 20.1964 52.5556 19.7564 53.0456C19.3064 53.5356 18.7864 53.9256 18.1864 54.2056C17.5864 54.4856 16.9764 54.6356 16.3464 54.6356C15.7264 54.6356 15.1764 54.5056 14.7164 54.2256C14.2464 53.9456 13.8964 53.5656 13.6664 53.0856C13.4364 52.6056 13.3564 52.0656 13.4364 51.4756L14.5064 46.7156H17.2564L16.1964 51.4356C16.1464 51.6756 16.1864 51.8756 16.3164 52.0456C16.4464 52.2156 16.6364 52.2956 16.8864 52.2956C17.1364 52.2956 17.3664 52.2056 17.5764 52.0456C17.7864 51.8756 17.9264 51.6756 17.9764 51.4356L19.2564 46.0756C19.3664 45.4956 19.1464 45.2156 18.6064 45.2356H18.4264C17.7564 45.2656 17.1864 45.1156 16.7064 44.8056C16.2264 44.4956 15.8864 44.0756 15.6764 43.5456C15.4664 43.0156 15.4264 42.4456 15.5364 41.8456L16.7764 36.5856C16.9164 35.9456 17.2164 35.3656 17.6564 34.8156C18.1064 34.2756 18.6464 33.8356 19.2664 33.5156L19.2864 33.5056Z" fill="white"/>
<path d="M16.3463 58.9701C14.9363 58.9701 13.6463 58.6201 12.5063 57.9401C11.3263 57.2401 10.3863 56.2101 9.78626 54.9701C9.18626 53.7301 8.96626 52.3201 9.15626 50.8901C9.17626 50.7601 9.19626 50.6401 9.22626 50.5101L10.2963 45.7501C10.4663 45.0101 10.8063 44.3601 11.2863 43.8201C11.1163 42.9101 11.1163 41.9801 11.2863 41.0201C11.2963 40.9601 11.3163 40.8901 11.3263 40.8301L12.5663 35.5701C12.8463 34.3201 13.4463 33.1201 14.3263 32.0501C15.1463 31.0501 16.1563 30.2401 17.3063 29.6501C18.5363 29.0201 19.8463 28.7001 21.1763 28.6901C22.7163 28.6501 24.0463 29.0701 25.2463 29.8401C26.5163 30.6501 27.4663 31.8201 27.9963 33.2301C28.5063 34.5701 28.5963 36.0001 28.2663 37.4701L27.2663 41.9201C27.1163 42.6101 26.7963 43.2301 26.3663 43.7501C26.5163 44.7701 26.4763 45.8201 26.2363 46.8701L24.9163 52.3901C24.8963 52.4901 24.8663 52.6001 24.8363 52.7001C24.4563 53.8901 23.8263 54.9801 22.9563 55.9401C22.1263 56.8501 21.1463 57.5801 20.0463 58.1001C18.8763 58.6601 17.6363 58.9401 16.3663 58.9501H16.3263L16.3463 58.9701Z" fill="white"/>
<path d="M30.8847 33.2891L28.8847 54.2191H26.1847L26.4847 51.5491H24.4147L23.5047 54.2491H20.8047L28.1947 33.2991H30.8747L30.8847 33.2891ZM26.7347 48.9491L28.1347 39.5491L25.3347 48.9591H26.7347V48.9491Z" fill="white"/>
<path d="M20.8048 58.5909C19.4048 58.5909 18.0948 57.9109 17.2748 56.7709C16.4548 55.6209 16.2548 54.1509 16.7148 52.8209L24.1048 31.8609C24.7148 30.1409 26.3348 28.9809 28.1648 28.9709H30.8448C30.8448 28.9709 30.8548 28.9609 30.8648 28.9609C32.0848 28.9609 33.2448 29.4709 34.0648 30.3709C34.8948 31.2709 35.2948 32.4809 35.1748 33.7009L33.1748 54.6309C32.9648 56.8409 31.1148 58.5309 28.8848 58.5509H26.1848C25.7048 58.5509 25.2748 58.4909 24.8448 58.3609C24.4248 58.5009 23.9648 58.5809 23.5048 58.5809H20.8048C20.8048 58.5809 20.7948 58.5909 20.7848 58.5909H20.8048Z" fill="white"/>
<path d="M36.4973 37.1862L32.6973 54.1462H30.0273L34.7273 33.2162L39.5773 33.1963L37.9273 46.4762L42.2573 33.1763L47.2673 33.1562L42.5673 54.0962H39.8673L43.7073 36.6763L37.5473 54.1162H34.8673L36.4873 37.1763L36.4973 37.1862Z" fill="white"/>
<path d="M30.0255 58.4839C28.7155 58.4839 27.4755 57.8939 26.6555 56.8739C25.8255 55.8439 25.5155 54.5039 25.8055 53.2139L30.5055 32.2739C30.9455 30.3039 32.6855 28.9039 34.7055 28.8939L39.5555 28.8739C40.0455 28.8739 40.4655 28.9439 40.8955 29.0839C41.3155 28.9439 41.7755 28.8639 42.2355 28.8639L47.2455 28.8439C48.5655 28.8339 49.8155 29.4339 50.6355 30.4539C51.4555 31.4739 51.7755 32.8239 51.4855 34.1139L46.7855 55.0539C46.3455 57.0239 44.6055 58.4239 42.5855 58.4339H39.8855C39.5055 58.4539 39.1055 58.3939 38.7255 58.2939C38.3555 58.3939 37.9655 58.4539 37.5655 58.4539H34.8855C34.5055 58.4739 34.1455 58.4239 33.7955 58.3339C33.4455 58.4239 33.0755 58.4739 32.7055 58.4839H30.0355C30.0355 58.4839 30.0255 58.4939 30.0155 58.4939L30.0255 58.4839Z" fill="white"/>
<path d="M48.3797 33.2019L53.7597 33.1719L53.1697 35.7919H50.4897L48.8797 42.9719H51.5597L50.9697 45.5819H48.2897L46.9697 51.5019H49.6497L49.0597 54.1119L43.6797 54.1419L48.3797 33.1919V33.2019Z" fill="white"/>
<path d="M43.6778 58.4816C42.3678 58.4816 41.1278 57.8916 40.3078 56.8716C39.4778 55.8416 39.1678 54.5016 39.4578 53.2116L44.1578 32.2616C44.5978 30.2916 46.3378 28.8916 48.3578 28.8816L53.7378 28.8516H53.7578C55.0678 28.8516 56.3078 29.4416 57.1278 30.4616C57.9578 31.4916 58.2678 32.8316 57.9778 34.1216L57.3878 36.7416C57.0578 38.2316 55.9778 39.4016 54.5978 39.8816C54.7178 40.0016 54.8278 40.1216 54.9278 40.2516C55.7578 41.2816 56.0678 42.6216 55.7778 43.9116L55.1878 46.5316C54.9378 47.6616 54.2478 48.6116 53.3178 49.2116C53.9078 50.1716 54.1078 51.3216 53.8578 52.4316L53.2678 55.0516C52.8278 57.0216 51.0878 58.4216 49.0678 58.4316L43.6878 58.4616H43.6678L43.6778 58.4816Z" fill="white"/>
<path d="M64.4662 35.7428C64.4462 35.8828 64.3962 36.1328 64.3162 36.5128L61.1162 50.7128C61.0362 51.0728 60.9762 51.3228 60.9362 51.4628C60.7862 52.0028 60.6063 52.4428 60.4163 52.7928C59.9263 53.6528 59.1262 54.0828 58.0262 54.0828L53.4062 54.1028L58.1062 33.1528L62.8063 33.1328C63.8863 33.1328 64.4762 33.5528 64.5662 34.4228C64.6162 34.7828 64.5862 35.2328 64.4762 35.7528L64.4662 35.7428ZM57.7762 51.2928C58.1362 51.1128 58.3662 50.7928 58.4762 50.3228L61.4762 36.9328C61.5862 36.4528 61.4962 36.1328 61.2162 35.9628C61.0562 35.8928 60.9262 35.8528 60.8262 35.8528H60.7663H60.1862L56.7062 51.3928H57.2862C57.4262 51.3928 57.5862 51.3628 57.7962 51.2828L57.7762 51.2928Z" fill="white"/>
<path d="M53.3849 58.4325C52.0749 58.4325 50.8349 57.8425 50.0149 56.8225C49.1849 55.7925 48.8749 54.4525 49.1649 53.1625L53.8649 32.2125C54.3049 30.2425 56.0449 28.8425 58.0649 28.8325L62.7649 28.8125H62.8049C66.0849 28.8125 68.5149 30.8725 68.8549 33.9525C68.9549 34.6925 68.9149 35.5625 68.7249 36.5325C68.6849 36.7425 68.6249 37.0525 68.5349 37.4625L65.3349 51.6625C65.2249 52.1725 65.1249 52.5225 65.0749 52.7125C64.8449 53.5225 64.5449 54.2625 64.1749 54.9125C62.9049 57.1325 60.6749 58.3925 58.0349 58.4025L53.4149 58.4225H53.3949L53.3849 58.4325Z" fill="white"/>
<path d="M71.5761 33.0938L69.5761 54.0238H66.8761L67.1761 51.3538H65.1061L64.1961 54.0537H61.4961L68.8861 33.1038H71.5661L71.5761 33.0938ZM67.4261 48.7438L68.8261 39.3438L66.0261 48.7537H67.4261V48.7438Z" fill="white"/>
<path d="M61.4974 58.3956C60.0974 58.3956 58.7874 57.7156 57.9674 56.5756C57.1474 55.4256 56.9474 53.9556 57.4174 52.6256L64.8074 31.6656C65.4174 29.9456 67.0374 28.7856 68.8674 28.7756H71.5474L71.5674 28.7656C72.7774 28.7656 73.9474 29.2756 74.7674 30.1756C75.5974 31.0756 75.9974 32.2856 75.8774 33.5056L73.8774 54.4356C73.6674 56.6456 71.8174 58.3356 69.5874 58.3556H66.8874C66.4174 58.3656 65.9774 58.2956 65.5474 58.1656C65.1274 58.3056 64.6674 58.3856 64.2074 58.3856H61.5074C61.5074 58.3856 61.4974 58.3956 61.4874 58.3956H61.4974Z" fill="white"/>
<path d="M75.6072 42.2069L79.3172 33.0469H82.0172L75.5572 48.5569H75.5372L74.3172 53.9969H71.6172L72.8372 48.5769H72.8172L73.3072 33.0869H76.0072L75.6072 42.2169V42.2069Z" fill="white"/>
<path d="M71.6153 58.3387C70.3053 58.3387 69.0653 57.7487 68.2453 56.7287C67.4153 55.6987 67.1053 54.3587 67.3953 53.0687L68.5053 48.1187L68.9853 32.9487C69.0553 30.6187 70.9653 28.7688 73.2853 28.7588H75.9853C75.9853 28.7588 75.9953 28.7487 76.0053 28.7487C76.5753 28.7487 77.1253 28.8587 77.6353 29.0687C78.1453 28.8487 78.7053 28.7387 79.2853 28.7287H81.9853C81.9853 28.7287 81.9953 28.7188 82.0053 28.7188C83.4453 28.7188 84.7953 29.4387 85.5953 30.6387C86.4053 31.8487 86.5553 33.3687 85.9953 34.7087L79.6453 49.9688L78.5253 54.9587C78.0853 56.9287 76.3453 58.3287 74.3253 58.3387H71.6253C71.6253 58.3387 71.6153 58.3488 71.6053 58.3488L71.6153 58.3387Z" fill="white"/>
<path d="M84.59 35.3716L88.71 35.3516L88.26 37.3616H86.21L84.98 42.8516H87.03L86.58 44.8516H84.53L83.52 49.3716H85.57L85.12 51.3716L81 51.3916L84.59 35.3816V35.3716Z" fill="white"/>
<path d="M80.9982 55.7123C79.6882 55.7123 78.4482 55.1223 77.6282 54.1023C76.7982 53.0723 76.4882 51.7323 76.7782 50.4423L80.3682 34.4323C80.8082 32.4623 82.5482 31.0623 84.5682 31.0523L88.6882 31.0323C89.9982 31.0023 91.2582 31.6223 92.0782 32.6523C92.9082 33.6823 93.2182 35.0223 92.9282 36.3123L92.4782 38.3223C92.2482 39.3523 91.6582 40.2323 90.8582 40.8323C91.3382 41.7323 91.4782 42.7823 91.2482 43.8023L90.7982 45.8123C90.6182 46.6323 90.1982 47.3523 89.6382 47.9223C89.9082 48.6823 89.9682 49.5223 89.7882 50.3223L89.3382 52.3323C88.8982 54.3023 87.1582 55.7023 85.1382 55.7123L81.0182 55.7323H80.9982V55.7123Z" fill="white"/>
<path d="M95.5105 35.3125L91.6405 43.9225L91.9205 51.3325H89.8705L89.6605 48.1725L88.0405 51.3525H85.9805L89.5805 43.9525V35.3525L91.6305 35.3425L91.5605 39.7125L93.4605 35.3325H95.5105V35.3125Z" fill="white"/>
<path d="M85.9695 55.6844C84.4795 55.6844 83.0995 54.9244 82.3095 53.6644C81.5095 52.3944 81.4295 50.8144 82.0795 49.4644L85.2495 42.9444V35.3444C85.2395 32.9644 87.1595 31.0244 89.5495 31.0144H91.6095C91.9295 31.0144 92.2295 31.0344 92.5295 31.0944C92.8295 31.0244 93.1295 30.9944 93.4495 30.9944H95.4995C95.4995 30.9944 95.5095 30.9844 95.5195 30.9844C96.9795 30.9844 98.3495 31.7244 99.1495 32.9544C99.9495 34.1844 100.069 35.7444 99.4695 37.0844L96.0195 44.7644L96.2595 51.1544C96.2995 52.3244 95.8695 53.4644 95.0595 54.3144C94.2495 55.1644 93.1295 55.6444 91.9595 55.6444H89.9095C89.5995 55.6444 89.2895 55.6244 88.9895 55.5644C88.6895 55.6344 88.3895 55.6644 88.0795 55.6644H86.0195C86.0195 55.6644 86.0095 55.6744 85.9995 55.6744L85.9695 55.6844Z" fill="white"/>
<path d="M101.16 37.2791C101.14 37.3791 101.11 37.5691 101.04 37.8491L99.6195 44.1891C99.5595 44.4691 99.5095 44.6591 99.4795 44.7591C99.3395 45.2191 99.1995 45.5591 99.0795 45.7791C98.7095 46.4291 98.1195 46.7591 97.3095 46.7691H95.8495L94.8295 51.3091H92.7695L96.3595 35.3091L99.8895 35.2891C100.69 35.2891 101.14 35.6091 101.22 36.2591C101.25 36.5391 101.22 36.8791 101.16 37.2791ZM97.1495 44.6291C97.4195 44.4891 97.5895 44.2491 97.6695 43.8891L98.9495 38.1691C99.0295 37.8091 98.9695 37.5691 98.7595 37.4291C98.6595 37.3691 98.5595 37.3491 98.4695 37.3491H98.4195H97.9595L96.3095 44.7191H96.7695C96.8795 44.7191 97.0095 44.6991 97.1495 44.6291Z" fill="white"/>
<path d="M92.7677 55.6488C91.4577 55.6488 90.2177 55.0588 89.3977 54.0387C88.5677 53.0087 88.2577 51.6688 88.5477 50.3787L92.1377 34.3687C92.5777 32.3987 94.3177 30.9988 96.3377 30.9888L99.8677 30.9688H99.8977C102.848 30.9688 105.148 32.9188 105.508 35.7188C105.508 35.7587 105.508 35.7987 105.518 35.8387C105.578 36.4987 105.558 37.1887 105.428 37.9587C105.398 38.1187 105.348 38.3987 105.258 38.7887L103.838 45.1287C103.738 45.5487 103.668 45.8387 103.618 45.9987C103.368 46.8087 103.128 47.3987 102.848 47.8887C102.058 49.2887 100.848 50.2788 99.3877 50.7588L99.0577 52.2487C98.6177 54.2187 96.8777 55.6187 94.8577 55.6287H92.7977C92.7977 55.6287 92.7877 55.6387 92.7777 55.6387L92.7677 55.6488Z" fill="white"/>
<path d="M101.951 46.8378L100.951 51.2778H98.8906L102.481 35.2778L106.011 35.2578C106.811 35.2578 107.261 35.5778 107.341 36.2278C107.371 36.5078 107.341 36.8478 107.281 37.2378C107.261 37.3378 107.231 37.5278 107.161 37.8078L106.001 42.9978C105.931 43.2978 105.791 43.6478 105.581 44.0378C105.371 44.4278 105.111 44.7778 104.811 45.0878C105.021 45.2978 105.121 45.5778 105.121 45.9078C105.121 46.2378 105.081 46.6278 104.981 47.0578L104.881 47.4878L104.281 51.2478H102.251L102.811 47.6378C102.851 47.4078 102.851 47.2378 102.811 47.1378C102.781 47.0378 102.711 46.9578 102.611 46.8978C102.511 46.8378 102.401 46.8178 102.281 46.8178H101.941L101.951 46.8378ZM104.871 37.3978C104.771 37.3378 104.671 37.3178 104.581 37.3178H104.531H104.071L102.541 44.1378H103.001C103.111 44.1378 103.241 44.1178 103.381 44.0478C103.651 43.9078 103.821 43.6678 103.901 43.3078L105.061 38.1378C105.141 37.7778 105.081 37.5378 104.871 37.3978Z" fill="white"/>
<path d="M98.8888 55.6175C97.5788 55.6175 96.3388 55.0275 95.5188 54.0075C94.6888 52.9775 94.3788 51.6375 94.6688 50.3475L98.2588 34.3375C98.6988 32.3675 100.439 30.9675 102.459 30.9575L105.989 30.9375H106.019C108.969 30.9375 111.269 32.8875 111.629 35.6875C111.629 35.7275 111.629 35.7675 111.639 35.8075C111.699 36.4675 111.669 37.1575 111.549 37.9375C111.529 38.0475 111.479 38.3475 111.379 38.7675L110.219 43.9575C110.069 44.6275 109.809 45.2875 109.439 45.9875C109.439 46.6175 109.359 47.2875 109.199 48.0075L109.129 48.3075L108.549 51.9275C108.219 54.0175 106.419 55.5675 104.299 55.5775H102.269C102.049 55.5875 101.829 55.5775 101.619 55.5375C101.409 55.5675 101.189 55.5875 100.969 55.5875H98.9088C98.9088 55.5875 98.8988 55.5975 98.8888 55.5975V55.6175Z" fill="white"/>
<path d="M108.731 35.2466L112.851 35.2266L112.401 37.2366H110.351L109.121 42.7266H111.171L110.721 44.7266H108.671L107.661 49.2466H109.711L109.261 51.2466L105.141 51.2666L108.731 35.2566V35.2466Z" fill="white"/>
<path d="M105.139 55.5863C103.829 55.5863 102.589 54.9963 101.769 53.9762C100.939 52.9462 100.629 51.6063 100.919 50.3162L104.509 34.3063C104.949 32.3363 106.689 30.9363 108.709 30.9263L112.829 30.9062H112.849C114.159 30.9062 115.399 31.4963 116.219 32.5163C117.049 33.5463 117.359 34.8863 117.069 36.1763L116.619 38.1863C116.389 39.2163 115.799 40.0963 114.999 40.6963C115.479 41.5963 115.619 42.6463 115.389 43.6663L114.939 45.6763C114.759 46.4963 114.339 47.2163 113.779 47.7863C114.049 48.5463 114.109 49.3763 113.929 50.1863L113.479 52.1963C113.039 54.1663 111.299 55.5663 109.279 55.5763L105.159 55.5963H105.139V55.5863Z" fill="white"/>
<path d="M115.111 35.3387C115.591 35.0887 116.081 34.9688 116.581 34.9688C117.081 34.9688 117.521 35.0888 117.891 35.3288C118.271 35.5688 118.531 35.8988 118.691 36.3088C118.851 36.7188 118.871 37.1687 118.761 37.6587L118.001 41.0588H115.901L116.711 37.4388C116.751 37.2488 116.721 37.0887 116.611 36.9587C116.501 36.8287 116.361 36.7687 116.171 36.7687C115.981 36.7687 115.811 36.8287 115.651 36.9587C115.491 37.0887 115.391 37.2488 115.351 37.4388L114.401 41.4188C114.371 41.5988 114.401 41.7587 114.491 41.8787C114.581 41.9987 114.721 42.0587 114.901 42.0487H115.301C115.881 42.0187 116.351 42.1487 116.681 42.4287C116.951 42.6587 117.131 42.9988 117.231 43.4388C117.331 43.8788 117.331 44.3487 117.221 44.8387L116.221 49.0187C116.081 49.4887 115.841 49.8988 115.491 50.2788C115.151 50.6588 114.751 50.9488 114.291 51.1688C113.831 51.3888 113.361 51.4987 112.881 51.4987C112.411 51.4987 111.991 51.3987 111.631 51.1787C111.271 50.9687 111.001 50.6788 110.831 50.3088C110.651 49.9388 110.591 49.5288 110.651 49.0788L111.471 45.4388H113.571L112.761 49.0487C112.721 49.2287 112.761 49.3888 112.851 49.5088C112.951 49.6388 113.101 49.6987 113.291 49.6987C113.481 49.6987 113.651 49.6288 113.821 49.5088C113.981 49.3788 114.091 49.2287 114.131 49.0387L115.111 44.9388C115.191 44.4888 115.031 44.2787 114.621 44.2987H114.491C113.981 44.3187 113.541 44.2087 113.171 43.9688C112.801 43.7288 112.541 43.4088 112.381 43.0088C112.221 42.6088 112.191 42.1687 112.271 41.7087L113.221 37.6888C113.331 37.1988 113.551 36.7487 113.901 36.3387C114.241 35.9187 114.651 35.5888 115.131 35.3488L115.111 35.3387Z" fill="white"/>
<path d="M112.86 55.8206C111.59 55.8206 110.43 55.5106 109.4 54.8906C108.33 54.2506 107.47 53.3206 106.92 52.1906C106.37 51.0606 106.17 49.7806 106.35 48.4906C106.37 48.3706 106.39 48.2506 106.42 48.1206L107.24 44.4806C107.37 43.9106 107.6 43.4006 107.92 42.9406C107.84 42.2706 107.87 41.5806 108 40.9006C108.01 40.8306 108.03 40.7706 108.04 40.7006L108.99 36.6806C109.24 35.5706 109.76 34.5106 110.54 33.5706C111.26 32.6906 112.14 31.9906 113.15 31.4806C114.23 30.9306 115.38 30.6406 116.56 30.6406H116.6C117.91 30.6406 119.16 31.0006 120.23 31.6806C121.39 32.4206 122.25 33.4906 122.74 34.7606C123.2 35.9606 123.28 37.2806 122.99 38.5906L122.23 42.0006C122.11 42.5306 121.9 43.0206 121.61 43.4606C121.68 44.2206 121.62 45.0006 121.45 45.7806L120.44 50.0206C120.42 50.1206 120.39 50.2206 120.36 50.3206C120.03 51.3806 119.47 52.3406 118.7 53.1906C117.98 53.9906 117.12 54.6206 116.15 55.0806C115.12 55.5706 114.03 55.8206 112.91 55.8306H112.88L112.86 55.8206Z" fill="white"/>
<path d="M121.639 35.3075C122.119 35.0575 122.609 34.9375 123.109 34.9375C123.609 34.9375 124.049 35.0575 124.419 35.2975C124.799 35.5375 125.059 35.8675 125.219 36.2775C125.379 36.6875 125.399 37.1375 125.289 37.6275L124.529 41.0275H122.429L123.239 37.4075C123.279 37.2175 123.239 37.0575 123.139 36.9275C123.029 36.7975 122.889 36.7375 122.699 36.7375C122.509 36.7375 122.339 36.7975 122.179 36.9275C122.019 37.0575 121.919 37.2175 121.879 37.4075L120.929 41.3875C120.899 41.5675 120.929 41.7275 121.019 41.8475C121.109 41.9675 121.249 42.0275 121.429 42.0175H121.829C122.409 41.9875 122.879 42.1175 123.209 42.3975C123.479 42.6275 123.659 42.9675 123.759 43.4075C123.859 43.8475 123.859 44.3175 123.749 44.8075L122.749 48.9875C122.609 49.4575 122.359 49.8675 122.019 50.2475C121.679 50.6275 121.279 50.9175 120.819 51.1375C120.359 51.3575 119.889 51.4675 119.409 51.4675C118.939 51.4675 118.519 51.3675 118.159 51.1475C117.799 50.9375 117.539 50.6475 117.359 50.2775C117.179 49.9075 117.119 49.4975 117.179 49.0475L117.999 45.4075H120.099L119.289 49.0175C119.249 49.1975 119.279 49.3575 119.379 49.4775C119.479 49.6075 119.629 49.6675 119.819 49.6675C120.009 49.6675 120.189 49.5975 120.349 49.4775C120.509 49.3575 120.619 49.1975 120.659 49.0075L121.639 44.9075C121.719 44.4575 121.559 44.2475 121.149 44.2675H121.019C120.509 44.2875 120.069 44.1775 119.699 43.9375C119.329 43.6975 119.069 43.3775 118.909 42.9775C118.749 42.5775 118.719 42.1375 118.799 41.6775L119.749 37.6575C119.859 37.1675 120.079 36.7175 120.429 36.3075C120.769 35.8875 121.179 35.5575 121.659 35.3175L121.639 35.3075Z" fill="white"/>
<path d="M119.387 55.7894C118.127 55.7894 116.957 55.4794 115.927 54.8594C114.847 54.2194 113.987 53.2794 113.447 52.1594C112.897 51.0294 112.697 49.7494 112.877 48.4594C112.897 48.3394 112.917 48.2194 112.947 48.0894L113.767 44.4494C113.897 43.8794 114.127 43.3594 114.447 42.9094C114.367 42.2394 114.397 41.5494 114.527 40.8694C114.537 40.7994 114.557 40.7394 114.567 40.6694L115.517 36.6494C115.767 35.5494 116.287 34.4894 117.067 33.5394C117.787 32.6594 118.667 31.9594 119.677 31.4494C120.757 30.8994 121.907 30.6094 123.087 30.6094H123.127C124.437 30.6094 125.687 30.9694 126.757 31.6494C127.917 32.3894 128.777 33.4594 129.267 34.7294C129.727 35.9294 129.807 37.2594 129.517 38.5694L128.757 41.9694C128.637 42.4994 128.427 42.9994 128.137 43.4294C128.207 44.1894 128.147 44.9694 127.977 45.7494L126.977 49.9394C126.947 50.0594 126.917 50.1794 126.877 50.2994C126.547 51.3594 125.987 52.3194 125.217 53.1594C124.507 53.9494 123.647 54.5794 122.677 55.0394C121.647 55.5294 120.557 55.7794 119.427 55.7894H119.397H119.387Z" fill="white"/>
<path d="M112.406 8.85971C111.366 9.62971 111.106 11.0297 111.806 11.9797C112.506 12.9297 113.916 13.0697 114.956 12.3097C115.996 11.5397 116.266 10.1397 115.566 9.18971C114.866 8.23971 113.456 8.08971 112.416 8.85971H112.406Z" fill="white"/>
<path d="M113.495 16.3979C113.295 16.3979 113.085 16.3879 112.885 16.3679C111.305 16.2079 109.855 15.3879 108.925 14.1279C107.105 11.6779 107.605 8.17794 110.015 6.18794L110.225 6.01794C110.225 6.01794 110.235 6.01794 110.245 6.00794L110.385 5.90794C111.645 5.01794 113.225 4.63794 114.725 4.85794C116.225 5.08794 117.545 5.86794 118.435 7.07794C120.305 9.60794 119.695 13.2579 117.085 15.1979C116.025 15.9779 114.775 16.3979 113.495 16.3979ZM112.785 9.46794C112.275 9.87794 112.225 10.7079 112.675 11.3179C112.925 11.6479 113.285 11.8779 113.675 11.9379C113.895 11.9679 114.115 11.9379 114.315 11.8679L112.785 9.46794ZM112.925 9.37794L114.875 11.3279C115.075 10.8879 115.015 10.3079 114.685 9.85794C114.425 9.51794 114.035 9.27794 113.625 9.23794C113.375 9.20794 113.125 9.25794 112.925 9.37794ZM112.835 9.42794L113.265 9.99794L112.835 9.41794V9.42794Z" fill="white"/>
<path d="M102.167 20.5173C102.167 20.5173 102.037 20.4673 101.987 20.5173C101.307 21.1373 100.397 21.4273 99.5371 21.2973C99.4371 21.2873 99.3671 21.1873 99.3771 21.0873C99.5171 20.2173 100.067 19.4273 100.857 18.9573C100.857 18.9573 100.857 18.9573 100.867 18.9573C100.927 18.9073 100.937 18.8273 100.887 18.7773C98.7071 16.6873 96.8671 18.8073 96.1271 19.8773C96.0571 19.9773 96.0571 20.0973 96.1271 20.1873C96.1771 20.2573 96.2671 20.2973 96.3571 20.2873C96.8671 20.2473 97.3771 20.3473 97.8171 20.5573C95.1971 22.1273 95.2271 24.2673 95.3171 25.2373C95.3171 25.2873 95.3471 25.3373 95.3771 25.3773C95.4771 25.4873 95.6471 25.4873 95.7671 25.3773C96.7271 24.5673 98.7071 24.4273 99.7771 24.4273C100.517 24.4273 101.257 24.1473 101.837 23.6373C103.157 22.4373 102.457 20.9873 102.187 20.5373C102.187 20.5373 102.187 20.5273 102.177 20.5173H102.167Z" fill="white"/>
<path d="M95.5961 29.034C94.5361 29.034 93.4761 28.604 92.7161 27.754C92.1761 27.144 91.8561 26.414 91.7661 25.624C91.5961 23.904 91.8861 22.324 92.5961 20.944C92.3461 19.904 92.5361 18.764 93.1861 17.824C95.0261 15.184 97.0561 14.464 98.4361 14.324C99.6761 14.204 101.536 14.424 103.376 16.174L103.646 16.464L104.606 17.604L104.586 17.844L105.046 18.314L105.296 18.754C106.816 21.274 106.406 24.334 104.246 26.294C102.976 27.414 101.386 28.044 99.7661 28.004C98.8461 28.004 98.1961 28.144 97.9561 28.224C97.2761 28.764 96.4361 29.024 95.6061 29.024L95.5961 29.034ZM104.416 23.154C104.416 23.154 104.396 23.174 104.376 23.184C104.386 23.174 104.396 23.164 104.416 23.154ZM93.4961 22.604C93.4961 22.604 93.4461 22.644 93.4161 22.664C93.4461 22.644 93.4661 22.624 93.4961 22.604Z" fill="white"/>
<path d="M121.829 3.61812C121.719 3.58812 121.609 3.57812 121.499 3.57812C113.789 3.71813 108.829 6.61812 105.729 9.65812L104.589 9.47813C103.759 9.34813 102.879 9.56812 102.179 10.0881L100.039 11.6881C99.9494 11.7481 99.9194 11.8581 99.9694 11.9481C99.9894 11.9781 100.009 11.9981 100.039 12.0081L102.689 13.4881C102.209 14.2681 101.789 15.0781 101.439 15.9081L101.239 16.3881L104.569 20.8981L105.089 20.8481C105.989 20.7481 106.879 20.5781 107.759 20.3381L108.399 23.3081C108.419 23.4081 108.519 23.4581 108.619 23.4381C108.649 23.4381 108.669 23.4181 108.689 23.3981L110.829 21.7981C111.539 21.2681 112.009 20.4881 112.129 19.6581L112.289 18.5081C116.089 16.4081 120.289 12.4781 122.649 5.10812C122.869 4.44812 122.519 3.77812 121.859 3.61812H121.829ZM114.959 12.3181C113.919 13.0881 112.519 12.9381 111.809 11.9881C111.099 11.0381 111.369 9.63812 112.409 8.86812C113.449 8.09812 114.859 8.24813 115.559 9.19812C116.259 10.1481 115.989 11.5481 114.949 12.3181H114.959Z" fill="white"/>
<path d="M108.548 27.0313C107.868 27.0313 107.188 26.8413 106.588 26.4813C105.828 26.0213 105.258 25.2913 104.978 24.4613L102.888 24.6813L97.1176 16.8713L97.9276 14.9813L97.5376 14.7913L96.9176 13.8413C95.8776 12.1513 96.3476 9.94126 97.9376 8.80126L100.038 7.23126C101.368 6.25126 102.988 5.77126 104.578 5.88126C109.028 2.15126 114.818 0.121256 121.448 0.00125585C121.858 -0.00874415 122.278 0.0412557 122.698 0.141256C123.978 0.451256 125.068 1.29126 125.698 2.44126C126.338 3.60126 126.458 4.99126 126.028 6.25126C124.018 12.5413 120.408 17.5113 115.558 20.7013C115.198 22.2713 114.268 23.6913 112.958 24.6713L110.268 26.6813L109.538 26.8913C109.218 26.9813 108.888 27.0213 108.558 27.0213L108.548 27.0313ZM111.858 22.5113V22.5613C111.858 22.5613 111.858 22.5313 111.858 22.5113ZM105.358 15.9813L106.138 17.0413C106.358 16.9913 106.568 16.9413 106.788 16.8813L108.938 16.3013V16.2413L110.358 15.4613C109.808 15.1013 109.328 14.6513 108.928 14.1213C108.528 13.5813 108.238 12.9913 108.058 12.3813L106.948 13.4713H106.888L105.708 15.3713C105.588 15.5713 105.468 15.7713 105.358 15.9713V15.9813ZM112.788 9.47126C112.278 9.88126 112.228 10.7113 112.678 11.3213C112.928 11.6513 113.288 11.8813 113.678 11.9413C113.898 11.9713 114.118 11.9413 114.318 11.8713L112.788 9.47126ZM112.928 9.38126L114.878 11.3313C115.078 10.8913 115.018 10.3113 114.688 9.86126C114.428 9.52126 114.038 9.28126 113.628 9.24126C113.378 9.21126 113.128 9.26126 112.928 9.38126ZM121.588 7.17126C121.588 7.17126 121.568 7.17126 121.558 7.17126C121.568 7.17126 121.578 7.17126 121.588 7.17126ZM119.208 4.02126C119.208 4.02126 119.198 4.06126 119.188 4.07126C119.188 4.05126 119.198 4.03126 119.208 4.02126Z" fill="white"/>
<path d="M7.15972 35.6944C7.26972 35.6944 7.35972 35.7244 7.40972 35.7944C7.46972 35.8644 7.47972 35.9544 7.45972 36.0644C7.43972 36.1744 7.37972 36.2644 7.28972 36.3344C7.19972 36.4044 7.09972 36.4444 6.98972 36.4444H5.14972C5.03972 36.4444 4.94972 36.4244 4.89972 36.3544C4.83972 36.2844 4.81972 36.1944 4.84972 36.0844C4.86972 35.9744 4.92972 35.8844 5.01972 35.8144C5.10972 35.7444 5.20972 35.7044 5.31972 35.7044H7.15972V35.6944ZM7.40972 34.2444C7.50972 34.2444 7.60972 34.2544 7.69972 34.2844C7.78972 34.3144 7.85972 34.3544 7.90972 34.4144C7.95972 34.4744 7.96972 34.5544 7.94972 34.6544C7.91972 34.7644 7.86972 34.8544 7.78972 34.9244C7.70972 34.9944 7.61972 35.0244 7.53972 35.0244C7.49972 35.0244 7.43972 35.0244 7.35972 34.9944C7.27972 34.9744 7.19972 34.9644 7.11972 34.9644C6.99972 34.9644 6.90972 34.9944 6.83972 35.0444C6.76972 35.0944 6.70972 35.1544 6.66972 35.2144C6.62972 35.2844 6.60972 35.3344 6.59972 35.3844L5.82972 38.8344C5.79972 38.9544 5.73972 39.0544 5.64972 39.1244C5.54972 39.2044 5.43972 39.2444 5.31972 39.2444C5.19972 39.2444 5.10972 39.2044 5.04972 39.1244C4.98972 39.0444 4.96972 38.9444 4.99972 38.8344L5.76972 35.3844C5.83972 35.0644 6.01972 34.7944 6.29972 34.5744C6.57972 34.3544 6.94972 34.2444 7.41972 34.2344L7.40972 34.2444Z" fill="white"/>
<path d="M5.32965 43.7637C3.78965 43.7637 2.38965 43.0837 1.46965 41.8937C0.579651 40.7537 0.259651 39.2737 0.579651 37.8437V37.7837C0.289651 36.9337 0.229651 36.0137 0.429651 35.1037C0.689651 33.9537 1.32965 32.9537 2.23965 32.2437C2.29965 32.1937 2.35965 32.1537 2.41965 32.1037C2.71965 31.7137 3.07965 31.3437 3.48965 31.0237C4.56965 30.1737 5.90965 29.7237 7.37965 29.7137C7.89965 29.6937 8.42965 29.7837 8.93965 29.9237C9.87965 30.1937 10.6897 30.7137 11.3197 31.4337C12.3297 32.6337 12.6897 34.1337 12.3597 35.6137C12.2597 36.0637 12.1097 36.4837 11.8997 36.8637C11.8897 36.9237 11.8797 36.9837 11.8597 37.0437C11.6297 38.0737 11.0597 39.0337 10.2397 39.7337L10.2197 39.8037C9.96965 40.9037 9.37965 41.8737 8.50965 42.5937C7.60965 43.3337 6.48965 43.7437 5.33965 43.7437H5.31965L5.32965 43.7637ZM7.17965 38.7437C7.25965 38.7437 7.35965 38.7437 7.42965 38.7437C7.59965 38.7437 8.10965 38.7137 8.68965 38.3737C8.89965 38.0537 9.05965 37.7037 9.16965 37.3337C9.02965 36.9837 8.83965 36.6537 8.59965 36.3437C7.80965 35.3237 6.51965 34.7037 5.28965 34.7137C4.64965 34.7137 4.03965 34.8737 3.48965 35.1537C3.59965 35.9337 3.92965 36.6837 4.44965 37.2937C5.01965 37.9537 5.68965 38.3837 6.42965 38.5937C6.67965 38.6637 6.92965 38.7137 7.16965 38.7237L7.17965 38.7437ZM8.38965 30.5937C8.38965 30.5937 8.43965 30.6037 8.46965 30.6137C8.44965 30.6137 8.41965 30.6037 8.38965 30.5937Z" fill="white"/>
<path d="M11.3587 37.4112C11.2787 37.7812 11.1187 38.1112 10.8887 38.3912C10.6587 38.6712 10.3787 38.8912 10.0587 39.0512C9.73872 39.2112 9.39873 39.2912 9.04873 39.2912C8.69873 39.2912 8.39873 39.2112 8.14873 39.0612C7.89873 38.9012 7.71872 38.6812 7.61872 38.4012C7.51872 38.1212 7.49873 37.7912 7.58873 37.4212C7.66873 37.0512 7.82873 36.7212 8.05873 36.4412C8.28873 36.1612 8.56873 35.9412 8.88873 35.7712C9.20873 35.6112 9.54872 35.5312 9.89872 35.5312C10.2487 35.5312 10.5487 35.6112 10.7987 35.7612C11.0487 35.9212 11.2287 36.1412 11.3287 36.4212C11.4387 36.7012 11.4487 37.0312 11.3587 37.4012V37.4112ZM10.5187 37.4212C10.5687 37.1912 10.5687 36.9912 10.5187 36.8212C10.4587 36.6512 10.3587 36.5212 10.2287 36.4312C10.0887 36.3412 9.91873 36.2912 9.72873 36.2912C9.52873 36.2912 9.34873 36.3412 9.16873 36.4412C8.98873 36.5412 8.82872 36.6712 8.69872 36.8412C8.56872 37.0112 8.46873 37.2112 8.41873 37.4412C8.36873 37.6712 8.36873 37.8612 8.42873 38.0312C8.48873 38.2013 8.58873 38.3312 8.71873 38.4212C8.85873 38.5112 9.02873 38.5612 9.21873 38.5612C9.40873 38.5612 9.59873 38.5112 9.77873 38.4212C9.95873 38.3212 10.1187 38.1912 10.2487 38.0212C10.3787 37.8512 10.4687 37.6512 10.5187 37.4312V37.4212Z" fill="white"/>
<path d="M9.03019 43.8112C7.84019 43.8112 6.71019 43.4912 5.74019 42.8912C4.65019 42.2112 3.84019 41.2112 3.38019 40.0012C2.96019 38.9012 2.89019 37.6712 3.16019 36.4512C3.40019 35.3812 3.87019 34.4212 4.55019 33.5912C5.18019 32.8212 5.95019 32.2012 6.83019 31.7612C7.79019 31.2812 8.80019 31.0412 9.85019 31.0312C11.0902 31.0312 12.2202 31.3512 13.1902 31.9712C14.2702 32.6612 15.0802 33.6512 15.5302 34.8512C15.9502 35.9612 16.0202 37.1812 15.7502 38.4112C15.5102 39.4712 15.0402 40.4412 14.3602 41.2712C13.7302 42.0412 12.9502 42.6612 12.0602 43.1112C11.1102 43.5812 10.1002 43.8212 9.06019 43.8312C9.05019 43.8312 9.04019 43.8312 9.02019 43.8312L9.03019 43.8112ZM6.95019 36.4212C6.90019 36.6512 6.81019 37.2712 7.10019 38.0312C7.34019 38.6712 7.79019 39.2212 8.36019 39.5812C9.02019 40.0012 9.56019 40.0512 9.91019 40.0512C10.2602 40.0512 10.6102 39.9612 10.9102 39.8112C11.1602 39.6812 11.3702 39.5112 11.5402 39.3112C11.7602 39.0512 11.9102 38.7312 11.9802 38.4112C12.0102 38.2912 12.0502 38.0512 12.0302 37.7512C12.0302 37.6912 12.0302 37.6212 12.0102 37.5612C11.9802 37.3412 11.9302 37.0812 11.8302 36.8112C11.5902 36.1612 11.1302 35.6012 10.5402 35.2412C10.0702 34.9512 9.48019 34.7912 9.02019 34.7812C8.69019 34.7812 8.34019 34.8612 8.04019 35.0112C7.79019 35.1412 7.56019 35.3113 7.39019 35.5312C7.18019 35.7913 7.02019 36.1112 6.95019 36.4312V36.4212Z" fill="white"/>
<path d="M12.0291 39.2112C11.9091 39.2112 11.8191 39.1712 11.7591 39.0912C11.6991 39.0112 11.6791 38.9112 11.7091 38.8012L12.3391 36.0112C12.3691 35.8912 12.4291 35.7912 12.5191 35.7212C12.6191 35.6412 12.7291 35.6012 12.8491 35.6012C12.9691 35.6012 13.0591 35.6412 13.1191 35.7212C13.1791 35.8012 13.1991 35.9012 13.1691 36.0112L13.0291 36.6512L13.0791 36.2012C13.1591 36.0912 13.2391 36.0012 13.3391 35.9112C13.4391 35.8212 13.5491 35.7612 13.6591 35.7012C13.7691 35.6412 13.8891 35.6012 14.0091 35.5712C14.1291 35.5412 14.2491 35.5312 14.3691 35.5312C14.5091 35.5312 14.6191 35.5712 14.6891 35.6412C14.7691 35.7212 14.7991 35.8112 14.7691 35.9112C14.7391 36.0612 14.6691 36.1712 14.5791 36.2312C14.4891 36.3012 14.3891 36.3312 14.2991 36.3312C14.2091 36.3312 14.1391 36.3213 14.0691 36.2812C13.9991 36.2513 13.9291 36.2312 13.8291 36.2312C13.7491 36.2312 13.6591 36.2512 13.5591 36.2912C13.4691 36.3312 13.3691 36.3912 13.2791 36.4712C13.1891 36.5512 13.1091 36.6512 13.0391 36.7712C12.9691 36.8912 12.9191 37.0312 12.8791 37.1912L12.5191 38.7912C12.4891 38.9112 12.4291 39.0112 12.3391 39.0812C12.2391 39.1612 12.1391 39.2012 12.0091 39.2012L12.0291 39.2112Z" fill="white"/>
<path d="M12.0305 43.7313C10.5205 43.7313 9.13048 43.0613 8.21048 41.8913C7.30048 40.7113 6.98048 39.2413 7.30048 37.8113L7.93048 35.0213C8.17048 33.9313 8.76048 32.9613 9.64048 32.2313C10.5405 31.4913 11.6705 31.0813 12.8205 31.0813C12.9905 31.0813 13.1505 31.0813 13.3105 31.1013C13.6705 31.0413 14.0405 30.9913 14.3705 31.0013C15.7005 31.0013 16.9405 31.5013 17.8705 32.4213C19.0605 33.5913 19.5505 35.2613 19.1805 36.9013C18.9005 38.1413 18.1905 39.2213 17.1705 39.9313C17.0705 40.0013 16.9605 40.0713 16.8505 40.1413C16.5605 41.1013 16.0005 41.9413 15.2205 42.5813C14.3005 43.3313 13.2205 43.7213 12.0605 43.7313C12.0505 43.7313 12.0305 43.7313 12.0205 43.7313H12.0305ZM10.2705 36.0213C10.3205 37.0713 10.7605 38.1013 11.5305 38.8513C12.1505 39.4613 12.9605 39.8613 13.8105 39.9913C14.3805 39.8513 14.9205 39.5813 15.3905 39.2013C15.6905 38.9513 15.9605 38.6613 16.1705 38.3313L13.8805 36.7513L13.0305 36.6513L12.0305 36.4213V39.2213L12.0205 36.4213L10.2905 36.0313L10.2705 36.0213ZM15.9505 32.1713C15.9505 32.1713 16.0105 32.2013 16.0505 32.2113C16.0205 32.1913 15.9905 32.1813 15.9505 32.1713Z" fill="white"/>
<path d="M121.826 3.61812C121.715 3.58812 121.605 3.57812 121.495 3.57812C113.785 3.71813 108.825 6.61812 105.725 9.65812L104.585 9.47813C103.755 9.34813 102.875 9.56812 102.175 10.0881L100.035 11.6881C99.9455 11.7481 99.9155 11.8581 99.9655 11.9481C99.9855 11.9781 100.005 11.9981 100.035 12.0081L102.685 13.4881C102.205 14.2681 101.785 15.0781 101.435 15.9081L101.235 16.3881L104.565 20.8981L105.085 20.8481C105.985 20.7481 106.875 20.5781 107.755 20.3381L108.395 23.3081C108.415 23.4081 108.515 23.4581 108.615 23.4381C108.645 23.4381 108.665 23.4181 108.685 23.3981L110.825 21.7981C111.535 21.2681 112.005 20.4881 112.125 19.6581L112.285 18.5081C116.085 16.4081 120.285 12.4781 122.645 5.10812C122.865 4.44812 122.515 3.77812 121.855 3.61812H121.826ZM114.955 12.3181C113.915 13.0881 112.515 12.9381 111.805 11.9881C111.095 11.0381 111.365 9.63812 112.405 8.86812C113.445 8.09812 114.855 8.24813 115.555 9.19812C116.255 10.1481 115.985 11.5481 114.945 12.3181H114.955Z" fill="black"/>
<path d="M11.8947 25.7609C11.7447 26.4109 11.4647 26.9909 11.0547 27.4909C10.6447 27.9909 10.1547 28.3809 9.58473 28.6609C9.01473 28.9409 8.42473 29.0809 7.80473 29.0909C7.18473 29.0909 6.65473 28.9609 6.20473 28.6809C5.76473 28.4009 5.44473 28.0209 5.26473 27.5209C5.07473 27.0209 5.05473 26.4509 5.20473 25.8009C5.35473 25.1509 5.62473 24.5709 6.04473 24.0709C6.45473 23.5709 6.94473 23.1809 7.51473 22.8909C8.08473 22.6009 8.67473 22.4609 9.29473 22.4609C9.91473 22.4609 10.4447 22.6009 10.8847 22.8809C11.3247 23.1609 11.6347 23.5509 11.8247 24.0509C12.0147 24.5509 12.0347 25.1209 11.8847 25.7709L11.8947 25.7609ZM10.4247 25.7609C10.5147 25.3509 10.5147 25.0009 10.4147 24.7009C10.3147 24.4009 10.1447 24.1709 9.89473 24.0009C9.64473 23.8309 9.35473 23.7509 9.01473 23.7509C8.67473 23.7509 8.33473 23.8409 8.01473 24.0109C7.69473 24.1809 7.41473 24.4109 7.18473 24.7109C6.95473 25.0109 6.78473 25.3609 6.69473 25.7709C6.60473 26.1709 6.61473 26.5209 6.71473 26.8109C6.81473 27.1109 6.98473 27.3409 7.23473 27.5109C7.47473 27.6809 7.77473 27.7609 8.11473 27.7609C8.45473 27.7609 8.79473 27.6709 9.11473 27.5009C9.43473 27.3309 9.71473 27.1009 9.94473 26.8009C10.1747 26.5009 10.3447 26.1509 10.4347 25.7509L10.4247 25.7609Z" fill="white"/>
<path d="M7.786 34.2096C6.206 34.2096 4.766 33.8096 3.506 33.0196C2.106 32.1396 1.066 30.8696 0.486 29.3196C-0.054 27.8796 -0.144 26.3096 0.216 24.6696C0.536 23.2296 1.176 21.9296 2.096 20.8096C2.956 19.7596 4.006 18.9196 5.216 18.3096C6.496 17.6696 7.856 17.3396 9.276 17.3296C10.876 17.2996 12.366 17.7296 13.646 18.5496C15.026 19.4296 16.056 20.6996 16.626 22.2296C17.176 23.6796 17.266 25.2396 16.896 26.8796C16.576 28.3196 15.946 29.6196 15.026 30.7396C14.156 31.7996 13.096 32.6496 11.876 33.2496C10.606 33.8796 9.246 34.1996 7.836 34.2096H7.786ZM7.796 23.9596C7.636 23.9596 7.466 23.9996 7.326 24.0696C7.236 24.1196 7.156 24.1896 7.116 24.2296C6.996 24.3696 6.936 24.5296 6.906 24.6296C6.896 24.6796 6.796 25.1596 7.046 25.8296C7.246 26.3696 7.646 26.8596 8.146 27.1796C8.596 27.4696 9.066 27.5896 9.326 27.5696C9.496 27.5696 9.676 27.5296 9.826 27.4596C9.916 27.4196 9.976 27.3496 10.016 27.3096C10.126 27.1696 10.196 27.0096 10.216 26.9096C10.256 26.7196 10.276 26.2496 10.066 25.6996C9.856 25.1496 9.446 24.6496 8.936 24.3296C8.496 24.0496 8.056 23.9596 7.786 23.9596H7.796Z" fill="white"/>
<path d="M13.0856 28.9419C12.8756 28.9419 12.7156 28.8719 12.6056 28.7319C12.4956 28.5919 12.4656 28.4219 12.5156 28.2119L13.6256 23.2719C13.6756 23.0619 13.7756 22.8919 13.9556 22.7519C14.1256 22.6119 14.3156 22.5419 14.5356 22.5419C14.7456 22.5419 14.9056 22.6119 15.0156 22.7519C15.1256 22.8919 15.1556 23.0619 15.1056 23.2719L14.8556 24.3919L14.9456 23.5919C15.0756 23.4019 15.2356 23.2319 15.4056 23.0819C15.5856 22.9319 15.7756 22.8119 15.9756 22.7119C16.1756 22.6119 16.3856 22.5419 16.6056 22.4919C16.8256 22.4419 17.0256 22.4219 17.2356 22.4219C17.4856 22.4219 17.6756 22.4819 17.8156 22.6219C17.9556 22.7519 18.0056 22.9119 17.9556 23.1019C17.8956 23.3619 17.7856 23.5519 17.6156 23.6719C17.4456 23.7919 17.2856 23.8419 17.1256 23.8519C16.9656 23.8519 16.8356 23.8219 16.7156 23.7719C16.6056 23.7119 16.4656 23.6919 16.2956 23.6919C16.1456 23.6919 15.9956 23.7319 15.8256 23.7919C15.6556 23.8619 15.4956 23.9619 15.3356 24.1119C15.1756 24.2519 15.0356 24.4319 14.9056 24.6419C14.7756 24.8519 14.6856 25.1019 14.6256 25.3919L13.9856 28.2219C13.9356 28.4319 13.8356 28.6019 13.6656 28.7419C13.4956 28.8819 13.3056 28.9519 13.0856 28.9519V28.9419Z" fill="white"/>
<path d="M11.4619 33.7349C9.66191 33.7349 8.02191 32.9349 6.94191 31.5449C5.90191 30.2149 5.52191 28.4649 5.90191 26.7649L7.01191 21.8249C7.31191 20.4949 8.03191 19.3249 9.09191 18.4549C10.1519 17.5749 11.4719 17.0949 12.8719 17.0849C13.2019 17.0849 13.5219 17.1049 13.8319 17.1549C14.4219 17.0249 15.0019 16.9549 15.5819 16.9549C17.2119 16.9149 18.6719 17.5349 19.7719 18.6249C21.1719 20.0049 21.7519 21.9649 21.3219 23.8749C20.9819 25.3849 20.1319 26.6749 18.9319 27.5149C18.4919 27.8249 18.0219 28.0749 17.5219 28.2549L17.3519 28.9949C17.0519 30.3249 16.3419 31.4849 15.2819 32.3549C14.1919 33.2449 12.8819 33.7249 11.4819 33.7349H11.4419H11.4619ZM11.3219 23.6449C11.5119 24.5049 11.9419 25.3049 12.5819 25.9349C13.1219 26.4649 13.7719 26.8449 14.4619 27.0449C14.8719 26.8849 15.2519 26.6649 15.5919 26.3749C15.6119 26.3549 15.6319 26.3449 15.6519 26.3249C15.4919 25.9449 15.2819 25.5749 15.0219 25.2449C14.6719 24.7949 14.2319 24.4149 13.7519 24.1249L13.2219 24.0649L11.3219 23.6349V23.6449ZM17.1819 18.7449C17.1819 18.7449 17.2719 18.7849 17.3119 18.8049C17.2719 18.7849 17.2319 18.7649 17.1819 18.7449Z" fill="white"/>
<path d="M24.927 20.0413C25.137 20.0413 25.297 20.1113 25.407 20.2413C25.517 20.3713 25.547 20.5512 25.497 20.7612L23.837 28.1513C23.787 28.3613 23.687 28.5313 23.507 28.6713C23.327 28.8113 23.147 28.8813 22.927 28.8813C22.717 28.8813 22.557 28.8113 22.447 28.6713C22.337 28.5313 22.307 28.3613 22.357 28.1513L22.487 27.5613L22.737 27.6713C22.717 27.7713 22.627 27.9012 22.477 28.0512C22.327 28.2012 22.137 28.3413 21.917 28.4913C21.687 28.6313 21.427 28.7612 21.137 28.8612C20.847 28.9613 20.547 29.0113 20.237 29.0113C19.667 29.0113 19.187 28.8712 18.797 28.5912C18.397 28.3112 18.127 27.9213 17.977 27.4213C17.827 26.9213 17.817 26.3512 17.967 25.7112C18.117 25.0612 18.377 24.4813 18.757 23.9813C19.137 23.4813 19.577 23.0913 20.097 22.8013C20.617 22.5113 21.137 22.3713 21.687 22.3713C22.037 22.3713 22.347 22.4212 22.627 22.5212C22.897 22.6212 23.127 22.7512 23.307 22.9112C23.487 23.0712 23.617 23.2313 23.707 23.3913C23.787 23.5513 23.817 23.6913 23.787 23.8013L23.307 23.9613L24.027 20.7612C24.077 20.5512 24.177 20.3813 24.357 20.2413C24.527 20.1013 24.717 20.0312 24.937 20.0312L24.927 20.0413ZM20.727 27.7013C21.087 27.7013 21.427 27.6112 21.737 27.4312C22.047 27.2512 22.307 27.0112 22.527 26.7112C22.747 26.4112 22.897 26.0713 22.987 25.6913C23.077 25.3113 23.077 24.9712 22.987 24.6612C22.907 24.3612 22.747 24.1213 22.517 23.9513C22.287 23.7812 21.987 23.6912 21.627 23.6912C21.277 23.6912 20.947 23.7813 20.637 23.9613C20.327 24.1413 20.067 24.3812 19.847 24.6812C19.627 24.9812 19.477 25.3312 19.387 25.7112C19.307 26.0812 19.307 26.4213 19.387 26.7213C19.467 27.0213 19.627 27.2612 19.857 27.4312C20.087 27.6012 20.377 27.6913 20.727 27.6913V27.7013Z" fill="white"/>
<path d="M20.2478 34.1419C18.6178 34.1419 17.0978 33.6719 15.8378 32.7819C14.5378 31.8519 13.5878 30.5419 13.0978 28.9719C12.6678 27.6019 12.6278 26.1419 12.9778 24.6119C13.2878 23.2319 13.8578 21.9919 14.6778 20.9019C15.4778 19.8419 16.4678 18.9719 17.6078 18.3419C18.3778 17.9119 19.1878 17.6119 20.0278 17.4419C20.3378 17.0219 20.6978 16.6319 21.1178 16.2919C22.1978 15.4119 23.5078 14.9319 24.8978 14.9219C24.9078 14.9219 24.9278 14.9219 24.9378 14.9219C26.6878 14.9219 28.3078 15.6819 29.3978 17.0219C30.4978 18.3819 30.8978 20.1519 30.5078 21.9019L28.8478 29.2919C28.5478 30.6219 27.8278 31.7819 26.7678 32.6519C25.6778 33.5419 24.3678 34.0219 22.9678 34.0219C22.6478 34.0219 22.3278 34.0019 22.0178 33.9519C21.4478 34.0819 20.8678 34.1519 20.2878 34.1519H20.2478V34.1419Z" fill="white"/>
<path d="M28.2262 28.9837C27.5262 28.9837 26.9562 28.8538 26.5062 28.5638C26.0562 28.2838 25.7562 27.9037 25.5862 27.4137C25.4162 26.9237 25.4062 26.3838 25.5462 25.7638C25.7062 25.0438 25.9962 24.4337 26.4062 23.9237C26.8162 23.4137 27.2962 23.0237 27.8462 22.7537C28.3862 22.4837 28.9362 22.3438 29.4762 22.3438C29.8962 22.3438 30.2662 22.4237 30.6062 22.5837C30.9362 22.7537 31.2162 22.9738 31.4362 23.2638C31.6562 23.5538 31.8062 23.8838 31.8962 24.2738C31.9762 24.6538 31.9762 25.0638 31.8762 25.4938C31.8262 25.6838 31.7162 25.8437 31.5362 25.9637C31.3662 26.0837 31.1762 26.1437 30.9762 26.1437L26.2862 26.1637L26.1862 24.9738L30.6962 24.9538L30.3762 25.1938L30.4462 24.8738C30.4862 24.6438 30.4462 24.4337 30.3362 24.2537C30.2262 24.0737 30.0662 23.9238 29.8662 23.8238C29.6662 23.7138 29.4362 23.6637 29.1862 23.6637C28.9362 23.6637 28.7062 23.6938 28.4762 23.7638C28.2462 23.8338 28.0362 23.9338 27.8562 24.0938C27.6662 24.2437 27.4962 24.4538 27.3462 24.7038C27.1962 24.9638 27.0862 25.2838 26.9962 25.6738C26.8962 26.1038 26.9062 26.4638 27.0262 26.7638C27.1462 27.0638 27.3262 27.2838 27.5862 27.4438C27.8362 27.5938 28.1362 27.6738 28.4662 27.6738C28.7662 27.6738 29.0162 27.6438 29.2062 27.5938C29.3962 27.5437 29.5562 27.4837 29.6762 27.4137C29.8062 27.3437 29.9162 27.2838 30.0162 27.2438C30.1762 27.1738 30.3262 27.1338 30.4562 27.1338C30.6362 27.1338 30.7762 27.1938 30.8662 27.3138C30.9562 27.4338 30.9862 27.5737 30.9462 27.7337C30.8962 27.9437 30.7362 28.1437 30.4662 28.3237C30.2162 28.5037 29.8862 28.6538 29.4662 28.7838C29.0562 28.9138 28.6362 28.9837 28.2262 28.9837Z" fill="white"/>
<path d="M28.1944 34.0988C26.5344 34.0988 25.0544 33.6987 23.7844 32.8988C22.3444 31.9988 21.2844 30.6687 20.7344 29.0687C20.2644 27.6787 20.1944 26.1888 20.5444 24.6488C20.8844 23.1488 21.5144 21.8187 22.4244 20.6987C23.2944 19.6287 24.3444 18.7787 25.5344 18.1787C26.7844 17.5487 28.0944 17.2287 29.4344 17.2188C30.6544 17.2387 31.8044 17.4688 32.8544 17.9888C33.9044 18.5088 34.7944 19.2388 35.4944 20.1488C36.1744 21.0388 36.6444 22.0687 36.8944 23.1887C37.1344 24.2987 37.1244 25.4487 36.8644 26.6087C36.8544 26.6687 36.8344 26.7387 36.8144 26.7987C36.6444 27.4487 36.3544 28.0687 35.9744 28.6187C35.9644 28.6887 35.9444 28.7587 35.9344 28.8187C35.5944 30.3187 34.6744 31.6288 33.3344 32.5288C32.6644 32.9888 31.9044 33.3487 31.0244 33.6387C30.1244 33.9287 29.1844 34.0787 28.2444 34.0887H28.1944V34.0988Z" fill="white"/>
<path d="M33.0192 28.8325C32.8092 28.8325 32.6492 28.7625 32.5392 28.6225C32.4292 28.4825 32.3992 28.3125 32.4492 28.1025L33.5592 23.1625C33.6092 22.9525 33.7092 22.7825 33.8892 22.6425C34.0592 22.5025 34.2492 22.4325 34.4692 22.4325C34.6792 22.4325 34.8392 22.5025 34.9492 22.6425C35.0592 22.7825 35.0892 22.9525 35.0392 23.1625L34.7892 24.2825L34.8792 23.4825C35.0092 23.2925 35.1692 23.1225 35.3392 22.9725C35.5192 22.8225 35.7092 22.7025 35.9092 22.6025C36.1092 22.5025 36.3192 22.4325 36.5392 22.3825C36.7592 22.3325 36.9592 22.3125 37.1692 22.3125C37.4192 22.3125 37.6092 22.3825 37.7492 22.5125C37.8892 22.6425 37.9392 22.8025 37.8892 22.9925C37.8292 23.2525 37.7192 23.4425 37.5492 23.5625C37.3792 23.6825 37.2192 23.7325 37.0592 23.7425C36.8992 23.7425 36.7692 23.7125 36.6492 23.6625C36.5392 23.6025 36.3992 23.5825 36.2292 23.5825C36.0792 23.5825 35.9292 23.6225 35.7592 23.6825C35.5892 23.7525 35.4292 23.8525 35.2692 24.0025C35.1092 24.1425 34.9692 24.3225 34.8392 24.5325C34.7092 24.7425 34.6192 24.9925 34.5592 25.2825L33.9192 28.1125C33.8692 28.3225 33.7692 28.4925 33.5992 28.6325C33.4292 28.7725 33.2392 28.8425 33.0292 28.8425L33.0192 28.8325Z" fill="white"/>
<path d="M33.0174 33.9575C31.2174 33.9575 29.5674 33.1575 28.4874 31.7575C27.4574 30.4475 27.0674 28.6975 27.4474 26.9875L28.5574 22.0475C28.8574 20.7175 29.5774 19.5575 30.6374 18.6875C31.7174 17.7975 33.0374 17.3175 34.4374 17.3175C34.7474 17.3175 35.0774 17.3375 35.3874 17.3875C35.9674 17.2575 36.5474 17.1875 37.1174 17.1875H37.1474C38.7474 17.1875 40.2174 17.7775 41.3174 18.8475C42.7274 20.2375 43.3074 22.1975 42.8774 24.1075C42.5374 25.6075 41.6974 26.8975 40.4974 27.7475C40.0474 28.0575 39.5774 28.3075 39.0874 28.4975L38.9174 29.2375C38.6174 30.5575 37.9074 31.7175 36.8574 32.5875C35.7574 33.4875 34.4474 33.9675 33.0474 33.9675H33.0174V33.9575ZM32.9974 24.3075C33.2274 24.9975 33.6074 25.6375 34.1374 26.1575C34.6774 26.6875 35.3274 27.0675 36.0174 27.2675C36.4174 27.1075 36.7974 26.8875 37.1374 26.6075C37.1574 26.5875 37.1774 26.5675 37.1974 26.5575C37.0374 26.1675 36.8274 25.8075 36.5674 25.4775C36.2174 25.0275 35.7874 24.6475 35.3074 24.3575L34.7774 24.2975L32.9974 23.8975V24.3175V24.3075ZM32.8774 23.8675C32.9074 24.0175 32.9474 24.1675 32.9974 24.3075V23.8875L32.8774 23.8575V23.8675ZM38.8174 19.0075C38.8174 19.0075 38.8474 19.0175 38.8674 19.0275C38.8474 19.0275 38.8374 19.0075 38.8174 19.0075Z" fill="white"/>
<path d="M45.6658 22.2631C46.2358 22.2631 46.7258 22.4031 47.1158 22.6831C47.5058 22.9631 47.7858 23.3531 47.9358 23.8431C48.0858 24.3331 48.0958 24.9131 47.9458 25.5631C47.7958 26.2131 47.5358 26.7931 47.1558 27.2931C46.7758 27.7931 46.3358 28.1831 45.8258 28.4731C45.3158 28.7631 44.7858 28.9031 44.2258 28.9031C43.8958 28.9031 43.6058 28.8531 43.3358 28.7531C43.0758 28.6531 42.8458 28.5231 42.6658 28.3631C42.4858 28.2031 42.3558 28.0431 42.2658 27.8831C42.1858 27.7231 42.1558 27.5831 42.1758 27.4731L42.5958 27.3131L42.3958 28.1831C42.3458 28.3931 42.2458 28.5631 42.0758 28.7031C41.9058 28.8431 41.7158 28.9131 41.4958 28.9131C41.2858 28.9131 41.1258 28.8431 41.0158 28.7131C40.9058 28.5831 40.8758 28.4031 40.9258 28.1931L42.6058 20.6831C42.6558 20.4731 42.7558 20.3031 42.9358 20.1631C43.1058 20.0231 43.2958 19.9531 43.5158 19.9531C43.7258 19.9531 43.8858 20.0231 43.9958 20.1631C44.1058 20.3031 44.1358 20.4731 44.0858 20.6831L43.4058 23.7231L43.2258 23.6131C43.2458 23.5131 43.3358 23.3831 43.4858 23.2331C43.6358 23.0831 43.8258 22.9331 44.0558 22.7931C44.2858 22.6431 44.5358 22.5231 44.8158 22.4231C45.0958 22.3231 45.3758 22.2731 45.6658 22.2731V22.2631ZM45.1858 23.5731C44.8258 23.5731 44.4858 23.6631 44.1758 23.8431C43.8658 24.0231 43.6058 24.2631 43.3858 24.5531C43.1658 24.8531 43.0158 25.1931 42.9258 25.5731C42.8458 25.9431 42.8458 26.2831 42.9258 26.5931C43.0058 26.9031 43.1658 27.1431 43.3958 27.3131C43.6258 27.4831 43.9258 27.5731 44.2858 27.5731C44.6458 27.5731 44.9758 27.4831 45.2858 27.3031C45.5958 27.1231 45.8558 26.8831 46.0758 26.5731C46.2958 26.2631 46.4458 25.9231 46.5358 25.5531C46.6258 25.1731 46.6258 24.8331 46.5358 24.5331C46.4558 24.2331 46.2958 24.0031 46.0658 23.8231C45.8358 23.6531 45.5458 23.5631 45.1858 23.5631V23.5731Z" fill="white"/>
<path d="M41.4975 34.0381C39.7475 34.0381 38.1175 33.2681 37.0375 31.9281C35.9575 30.5881 35.5475 28.8181 35.9375 27.0681L37.6175 19.5681C37.9175 18.2381 38.6375 17.0681 39.6975 16.1981C40.7675 15.3181 42.0775 14.8381 43.4775 14.8281H43.5075C45.3175 14.8281 46.9675 15.6281 48.0475 17.0181C48.2075 17.2181 48.3475 17.4281 48.4675 17.6481C49.0475 17.8681 49.5875 18.1581 50.0875 18.5181C51.3775 19.4481 52.3175 20.7481 52.8075 22.2981C53.2375 23.6681 53.2775 25.1381 52.9375 26.6881C52.6275 28.0581 52.0575 29.2981 51.2375 30.3881C50.4275 31.4581 49.4475 32.3181 48.3175 32.9481C47.0475 33.6581 45.6775 34.0281 44.2475 34.0281C43.7675 34.0281 43.2675 33.9881 42.7975 33.8981C42.3875 33.9881 41.9575 34.0381 41.5275 34.0381H41.4875H41.4975ZM42.9675 25.0281C43.1575 25.0581 43.3675 25.0781 43.5475 25.0681C43.8775 25.0681 44.1975 25.0281 44.5075 24.9481C44.1075 24.5881 43.6475 24.3081 43.1575 24.1081C43.1075 24.1581 43.0775 24.1881 43.0775 24.1881C42.9875 24.2981 42.9575 24.3981 42.9475 24.4281C42.9475 24.4281 42.8975 24.6581 42.9675 25.0181V25.0281Z" fill="white"/>
<path d="M54.7092 22.3438C54.9192 22.3438 55.0792 22.4138 55.1892 22.5538C55.2992 22.6938 55.3292 22.8638 55.2792 23.0738L54.1392 28.1538C53.9792 28.8838 53.6992 29.4738 53.3192 29.9038C52.9392 30.3438 52.4892 30.6538 51.9692 30.8438C51.4492 31.0337 50.8992 31.1338 50.3092 31.1338C50.0492 31.1338 49.7692 31.1137 49.4892 31.0737C49.1992 31.0337 48.9792 30.9737 48.8092 30.8937C48.5892 30.7937 48.4492 30.6637 48.3892 30.5037C48.3292 30.3538 48.3492 30.1837 48.4492 30.0037C48.5792 29.7737 48.7292 29.6138 48.9092 29.5338C49.0892 29.4538 49.2692 29.4437 49.4292 29.5037C49.5492 29.5437 49.7092 29.6038 49.8992 29.6838C50.0892 29.7638 50.3292 29.8037 50.6092 29.8037C50.9892 29.8037 51.3092 29.7538 51.5792 29.6538C51.8492 29.5538 52.0792 29.3838 52.2592 29.1538C52.4392 28.9238 52.5692 28.5938 52.6692 28.1938L52.8492 27.3937L53.0392 27.6838C52.8392 27.9438 52.6192 28.1638 52.3692 28.3338C52.1192 28.5038 51.8492 28.6338 51.5392 28.7238C51.2292 28.8138 50.8992 28.8538 50.5292 28.8638C50.0992 28.8638 49.7392 28.7737 49.4592 28.5737C49.1792 28.3837 48.9892 28.1138 48.8892 27.7638C48.7892 27.4138 48.7892 27.0237 48.8892 26.5737L49.6692 23.0837C49.7192 22.8737 49.8192 22.7038 49.9992 22.5638C50.1692 22.4238 50.3592 22.3538 50.5792 22.3538C50.7892 22.3538 50.9492 22.4238 51.0592 22.5638C51.1692 22.7038 51.1992 22.8737 51.1492 23.0837L50.4592 26.1437C50.3392 26.6637 50.3792 27.0237 50.5692 27.2337C50.7592 27.4437 51.0592 27.5438 51.4792 27.5438C51.7692 27.5438 52.0192 27.4838 52.2392 27.3838C52.4592 27.2738 52.6492 27.1138 52.7992 26.9038C52.9492 26.6938 53.0592 26.4338 53.1292 26.1338L53.8192 23.0738C53.8692 22.8638 53.9792 22.6938 54.1492 22.5538C54.3192 22.4138 54.5092 22.3438 54.7292 22.3438H54.7092Z" fill="white"/>
<path d="M48.803 35.0031C48.333 35.0031 47.833 34.9731 47.333 34.9031C46.533 34.7931 45.823 34.6031 45.183 34.3031C43.743 33.6331 42.653 32.4931 42.123 31.0931C41.593 29.6831 41.643 28.1331 42.253 26.7531C42.163 25.9331 42.213 25.0831 42.403 24.2131L43.183 20.7131C43.483 19.3831 44.203 18.2131 45.263 17.3431C46.333 16.4631 47.653 15.9831 49.053 15.9731C49.773 15.9931 50.463 16.0931 51.113 16.3331C51.773 16.0831 52.473 15.9531 53.193 15.9531C54.993 15.9731 56.663 16.7431 57.753 18.1531C58.783 19.4631 59.173 21.2131 58.793 22.9231L57.653 28.0031C57.303 29.5731 56.643 30.9131 55.703 32.0031C54.763 33.0831 53.613 33.8831 52.283 34.3831C51.203 34.7831 50.043 34.9931 48.853 35.0031H48.793H48.803ZM46.293 33.1131C46.293 33.1131 46.313 33.1131 46.323 33.1131C46.323 33.1131 46.303 33.1131 46.293 33.1131ZM50.363 23.7031C50.363 23.7031 50.393 23.7131 50.413 23.7231C50.393 23.7231 50.383 23.7131 50.363 23.7031Z" fill="white"/>
<path d="M59.7564 27.025C59.8264 27.025 59.9064 27.035 59.9864 27.055C60.0664 27.075 60.1564 27.125 60.2464 27.195C60.3664 27.295 60.5064 27.385 60.6864 27.465C60.8564 27.545 61.0764 27.585 61.3264 27.585C61.5764 27.585 61.8364 27.525 62.0864 27.395C62.3364 27.275 62.5664 27.095 62.7664 26.865C62.9664 26.635 63.0964 26.365 63.1664 26.045C63.2364 25.745 63.2264 25.495 63.1464 25.295C63.0664 25.095 62.9264 24.945 62.7464 24.845C62.5564 24.745 62.3464 24.695 62.1164 24.695C61.9364 24.695 61.7864 24.715 61.6564 24.745C61.5364 24.775 61.4064 24.815 61.2864 24.845C61.1664 24.885 61.0364 24.905 60.8864 24.905C60.6964 24.905 60.5664 24.845 60.4964 24.715C60.4264 24.585 60.4064 24.435 60.4464 24.265C60.4664 24.155 60.5164 24.055 60.5764 23.965C60.6364 23.875 60.7264 23.785 60.8464 23.675L63.5064 21.425L63.7764 21.695L60.7564 21.715C60.5564 21.715 60.4064 21.655 60.3064 21.525C60.2064 21.395 60.1764 21.235 60.2164 21.045C60.2564 20.865 60.3564 20.705 60.5164 20.585C60.6764 20.465 60.8564 20.395 61.0464 20.395L64.8064 20.375C65.0564 20.375 65.2364 20.435 65.3364 20.575C65.4364 20.715 65.4564 20.885 65.4164 21.085C65.3964 21.185 65.3464 21.295 65.2664 21.395C65.1864 21.495 65.0964 21.585 64.9964 21.665L62.3164 23.945L62.0764 23.545C62.1764 23.505 62.3064 23.465 62.4764 23.435C62.6464 23.405 62.7764 23.385 62.8864 23.385C63.3664 23.385 63.7664 23.505 64.0664 23.745C64.3664 23.985 64.5764 24.295 64.6764 24.685C64.7864 25.075 64.7864 25.485 64.6764 25.935C64.5464 26.525 64.2964 27.035 63.9264 27.465C63.5564 27.895 63.1064 28.225 62.5564 28.465C62.0164 28.695 61.4164 28.815 60.7564 28.825C60.4564 28.825 60.1664 28.795 59.8864 28.725C59.6064 28.655 59.3764 28.565 59.1864 28.445C59.0264 28.345 58.9264 28.245 58.8964 28.135C58.8564 28.015 58.8564 27.915 58.8764 27.805C58.9164 27.625 59.0264 27.445 59.1964 27.285C59.3664 27.125 59.5564 27.035 59.7564 27.035V27.025Z" fill="white"/>
<path d="M60.7379 33.9403C60.0179 33.9403 59.3079 33.8503 58.6279 33.6803C57.8479 33.4803 57.1279 33.1803 56.4879 32.7903C55.2779 32.0503 54.3979 30.9303 53.9979 29.6303C53.6979 28.6603 53.6579 27.6303 53.8779 26.6603C54.1079 25.6503 54.5979 24.7003 55.3179 23.9103C55.3379 23.6703 55.3779 23.4303 55.4279 23.1903C55.0479 22.1703 54.9679 21.0403 55.2179 19.9203C55.5179 18.5903 56.2779 17.3903 57.3679 16.5403C58.4179 15.7203 59.6879 15.2803 61.0279 15.2703L64.7879 15.2503C66.6979 15.2303 68.4279 16.0903 69.4979 17.5903C70.4579 18.9403 70.7779 20.5803 70.4079 22.2203C70.2779 22.8103 70.0479 23.3703 69.7379 23.9003C69.9279 24.9203 69.9079 25.9803 69.6679 27.0403C69.3579 28.4403 68.7379 29.7003 67.8279 30.7603C66.9379 31.8103 65.8479 32.6103 64.5779 33.1503C63.3979 33.6603 62.1279 33.9203 60.7879 33.9203H60.7479L60.7379 33.9403Z" fill="white"/>
<path d="M70.1367 22.1406C70.7067 22.1406 71.1967 22.2806 71.5867 22.5606C71.9767 22.8406 72.2567 23.2306 72.4067 23.7206C72.5567 24.2106 72.5667 24.7906 72.4167 25.4406C72.2667 26.0906 72.0067 26.6706 71.6267 27.1706C71.2467 27.6706 70.8067 28.0606 70.2967 28.3506C69.7867 28.6406 69.2567 28.7806 68.6967 28.7806C68.3667 28.7806 68.0767 28.7306 67.8067 28.6306C67.5467 28.5306 67.3167 28.4006 67.1367 28.2406C66.9567 28.0806 66.8267 27.9206 66.7367 27.7606C66.6567 27.6006 66.6267 27.4606 66.6467 27.3506L67.0667 27.1906L66.3667 30.3306C66.3167 30.5406 66.2067 30.7106 66.0367 30.8506C65.8667 30.9906 65.6767 31.0606 65.4567 31.0606C65.2467 31.0606 65.0867 30.9906 64.9767 30.8606C64.8667 30.7206 64.8367 30.5506 64.8867 30.3406L66.5267 23.0106C66.5767 22.8006 66.6767 22.6306 66.8567 22.4906C67.0267 22.3506 67.2167 22.2806 67.4367 22.2806C67.6467 22.2806 67.8067 22.3506 67.9167 22.4906C68.0267 22.6306 68.0567 22.8006 68.0067 23.0106L67.8767 23.6006L67.6967 23.4906C67.7167 23.3906 67.8067 23.2606 67.9567 23.1106C68.1067 22.9606 68.2967 22.8106 68.5267 22.6706C68.7567 22.5206 69.0067 22.4006 69.2867 22.3006C69.5667 22.2006 69.8467 22.1506 70.1367 22.1506V22.1406ZM69.6667 23.4606C69.3067 23.4606 68.9667 23.5506 68.6667 23.7306C68.3667 23.9106 68.0967 24.1506 67.8767 24.4406C67.6567 24.7406 67.5067 25.0806 67.4167 25.4606C67.3367 25.8306 67.3367 26.1806 67.4167 26.4806C67.4967 26.7906 67.6567 27.0306 67.8867 27.2006C68.1167 27.3706 68.4167 27.4606 68.7767 27.4606C69.1367 27.4606 69.4667 27.3706 69.7767 27.1906C70.0867 27.0106 70.3467 26.7706 70.5667 26.4606C70.7867 26.1506 70.9367 25.8106 71.0267 25.4406C71.1167 25.0606 71.1167 24.7206 71.0267 24.4206C70.9467 24.1206 70.7867 23.8906 70.5567 23.7106C70.3267 23.5406 70.0367 23.4506 69.6767 23.4506L69.6667 23.4606Z" fill="white"/>
<path d="M65.4655 36.1778C63.7155 36.1778 62.0955 35.4078 61.0155 34.0778C59.9255 32.7178 59.5255 30.9478 59.9155 29.2178L61.5555 21.8878C61.8455 20.5678 62.5655 19.3978 63.6355 18.5178C64.6955 17.6378 66.0155 17.1578 67.4155 17.1478C67.7455 17.1478 68.0655 17.1678 68.3855 17.2178C68.9555 17.0878 69.5355 17.0178 70.1155 17.0078H70.1555C71.7855 17.0078 73.3155 17.4878 74.5755 18.3878C75.8655 19.3178 76.8055 20.6278 77.2955 22.1678C77.7255 23.5278 77.7655 25.0078 77.4155 26.5478C77.1055 27.9178 76.5355 29.1578 75.7255 30.2378C74.9055 31.3078 73.9355 32.1678 72.8055 32.7978C72.0155 33.2378 71.1855 33.5478 70.3355 33.7178C70.0455 34.1078 69.7055 34.4678 69.3155 34.7878C68.2255 35.6878 66.9055 36.1578 65.5155 36.1678H65.4755L65.4655 36.1778Z" fill="white"/>
<path d="M77.7847 22.1103C78.4447 22.1103 78.8847 22.2603 79.1347 22.5603C79.3747 22.8703 79.4947 23.2603 79.4847 23.7503L79.3047 23.6403L79.4447 23.4503C79.5847 23.2703 79.7847 23.0703 80.0347 22.8603C80.2847 22.6503 80.5747 22.4703 80.8947 22.3203C81.2147 22.1703 81.5647 22.1003 81.9247 22.0903C82.5147 22.0903 82.9347 22.2103 83.1847 22.4503C83.4347 22.7003 83.5747 23.0203 83.5947 23.4303C83.6147 23.8403 83.5747 24.3003 83.4647 24.8003L82.7747 27.8603C82.7247 28.0703 82.6147 28.2403 82.4447 28.3803C82.2747 28.5203 82.0847 28.5903 81.8647 28.5903C81.6447 28.5903 81.4947 28.5203 81.3847 28.3803C81.2747 28.2403 81.2447 28.0703 81.2947 27.8603L81.9847 24.8003C82.0447 24.5403 82.0647 24.3003 82.0447 24.0903C82.0247 23.8803 81.9447 23.7103 81.8047 23.5803C81.6647 23.4503 81.4247 23.3903 81.1147 23.3903C80.8047 23.3903 80.5247 23.4603 80.2747 23.5903C80.0247 23.7203 79.8247 23.8903 79.6647 24.1003C79.5047 24.3103 79.3947 24.5503 79.3447 24.8103L78.6547 27.8703C78.6047 28.0803 78.4947 28.2503 78.3247 28.3903C78.1547 28.5303 77.9647 28.6003 77.7447 28.6003C77.5247 28.6003 77.3747 28.5303 77.2647 28.3903C77.1547 28.2503 77.1247 28.0803 77.1747 27.8703L77.8647 24.8103C77.9247 24.5503 77.9447 24.3103 77.9247 24.1003C77.9047 23.8903 77.8247 23.7203 77.6847 23.5903C77.5447 23.4603 77.3147 23.4003 76.9947 23.4003C76.6847 23.4003 76.4047 23.4703 76.1547 23.6003C75.9047 23.7303 75.7047 23.9003 75.5447 24.1103C75.3847 24.3203 75.2747 24.5603 75.2147 24.8203L74.5247 27.8803C74.4747 28.0903 74.3747 28.2603 74.2047 28.4003C74.0347 28.5403 73.8447 28.6103 73.6247 28.6103C73.4147 28.6103 73.2547 28.5403 73.1447 28.4003C73.0347 28.2603 73.0047 28.0903 73.0547 27.8803L74.1647 22.9403C74.2147 22.7303 74.3247 22.5603 74.4947 22.4203C74.6647 22.2803 74.8547 22.2103 75.0747 22.2103C75.2847 22.2103 75.4447 22.2803 75.5547 22.4203C75.6647 22.5603 75.6947 22.7303 75.6447 22.9403L75.5247 23.4503L75.3547 23.4103C75.4547 23.2703 75.5947 23.1303 75.7547 22.9703C75.9247 22.8103 76.1147 22.6703 76.3347 22.5303C76.5547 22.3903 76.7847 22.2803 77.0347 22.2003C77.2847 22.1203 77.5447 22.0703 77.8147 22.0703L77.7847 22.1103Z" fill="white"/>
<path d="M73.5847 33.7588C71.7947 33.7588 70.1547 32.9587 69.0747 31.5687C68.0347 30.2487 67.6547 28.4988 68.0347 26.8088L69.1447 21.8587C69.4447 20.5187 70.1647 19.3588 71.2247 18.4888C72.2847 17.6088 73.6047 17.1287 75.0047 17.1187C75.3547 17.1187 75.6847 17.1487 76.0047 17.1987C76.5747 17.0587 77.1647 16.9888 77.7547 16.9888C78.5447 16.9988 79.2447 17.0887 79.8547 17.2487C80.5147 17.0587 81.1847 16.9688 81.8847 16.9688H81.9247C84.3647 16.9688 85.8847 17.9487 86.7447 18.7787C87.9147 19.9187 88.6047 21.4588 88.6947 23.1388C88.7447 24.0388 88.6547 24.9688 88.4447 25.9188L87.7547 28.9787C87.4647 30.2987 86.7447 31.4587 85.6847 32.3387C84.5947 33.2287 83.2847 33.7087 81.8847 33.7188H81.8547C81.1447 33.7188 80.4647 33.5987 79.8347 33.3587C79.1747 33.6087 78.4747 33.7288 77.7547 33.7388H77.7247C77.0147 33.7388 76.3347 33.6187 75.7047 33.3787C75.0447 33.6287 74.3447 33.7488 73.6247 33.7588H73.5847ZM69.5047 26.7687C69.5047 26.7687 69.5047 26.7787 69.5047 26.7887V26.7687Z" fill="white"/>
<path d="M6.26728 35.6944C6.37728 35.6944 6.46728 35.7244 6.51728 35.7944C6.57728 35.8644 6.58728 35.9544 6.56728 36.0644C6.54728 36.1744 6.48728 36.2644 6.39728 36.3344C6.30728 36.4044 6.20728 36.4444 6.09728 36.4444H4.25728C4.14728 36.4444 4.05728 36.4244 4.00728 36.3544C3.95728 36.2844 3.92728 36.1944 3.95728 36.0844C3.97728 35.9744 4.03728 35.8844 4.12728 35.8144C4.21728 35.7444 4.31728 35.7044 4.42728 35.7044H6.26728V35.6944ZM6.51728 34.2444C6.61728 34.2444 6.71728 34.2544 6.80728 34.2844C6.89728 34.3144 6.96728 34.3544 7.01728 34.4144C7.06728 34.4744 7.07728 34.5544 7.05728 34.6544C7.03728 34.7644 6.97728 34.8544 6.89728 34.9244C6.81728 34.9944 6.72728 35.0244 6.64728 35.0244C6.60728 35.0244 6.54728 35.0244 6.46728 34.9944C6.38728 34.9744 6.30728 34.9644 6.22728 34.9644C6.10728 34.9644 6.01728 34.9944 5.94728 35.0444C5.87728 35.0944 5.81728 35.1544 5.77728 35.2144C5.73728 35.2744 5.71728 35.3344 5.70728 35.3844L4.93728 38.8344C4.90728 38.9544 4.84728 39.0544 4.75728 39.1244C4.65728 39.2044 4.54728 39.2444 4.42728 39.2444C4.30728 39.2444 4.21728 39.2044 4.15728 39.1244C4.09728 39.0444 4.07728 38.9444 4.10728 38.8344L4.87728 35.3844C4.94728 35.0644 5.12728 34.7944 5.40728 34.5744C5.68728 34.3544 6.05728 34.2444 6.52728 34.2344L6.51728 34.2444Z" fill="#FFB803"/>
<path d="M10.4558 37.4191C10.3758 37.7891 10.2157 38.1191 9.98575 38.3991C9.75575 38.6791 9.47575 38.8991 9.15575 39.0591C8.83575 39.2191 8.49575 39.2991 8.14575 39.2991C7.79575 39.2991 7.49575 39.2191 7.24575 39.0691C6.99575 38.9091 6.81575 38.6891 6.71575 38.4091C6.60575 38.1291 6.59575 37.7991 6.68575 37.4291C6.76575 37.0591 6.92575 36.7291 7.15575 36.4491C7.38575 36.1691 7.66575 35.9491 7.98575 35.7791C8.30575 35.6191 8.64575 35.5391 8.99575 35.5391C9.34575 35.5391 9.64575 35.6191 9.89575 35.7791C10.1457 35.9391 10.3257 36.1591 10.4257 36.4391C10.5357 36.7191 10.5457 37.0491 10.4657 37.4091L10.4558 37.4191ZM9.62575 37.4191C9.67575 37.1891 9.67575 36.9891 9.62575 36.8191C9.56575 36.6491 9.46575 36.5191 9.33575 36.4291C9.19575 36.3391 9.02575 36.2891 8.83575 36.2891C8.63575 36.2891 8.45575 36.3391 8.27575 36.4291C8.09575 36.5291 7.93575 36.6591 7.80575 36.8291C7.67575 36.9991 7.57575 37.1991 7.52575 37.4291C7.47575 37.6591 7.47575 37.8491 7.52575 38.0191C7.58575 38.1891 7.68575 38.3191 7.81575 38.4091C7.95575 38.4991 8.12575 38.5491 8.31575 38.5491C8.50575 38.5491 8.69575 38.4991 8.87575 38.4091C9.05575 38.3091 9.21575 38.1791 9.34575 38.0091C9.47575 37.8391 9.57575 37.6391 9.62575 37.4191Z" fill="#FFB803"/>
<path d="M11.1268 39.2191C11.0068 39.2191 10.9168 39.1791 10.8568 39.0991C10.7968 39.0191 10.7768 38.9191 10.8068 38.8091L11.4368 36.0191C11.4668 35.8991 11.5268 35.7991 11.6168 35.7291C11.7168 35.6491 11.8268 35.6091 11.9468 35.6091C12.0668 35.6091 12.1568 35.6491 12.2168 35.7291C12.2768 35.8091 12.2968 35.9091 12.2668 36.0191L12.1268 36.6591L12.1768 36.2091C12.2468 36.0991 12.3368 36.0091 12.4368 35.9191C12.5368 35.8391 12.6468 35.7691 12.7568 35.7091C12.8668 35.6491 12.9868 35.6091 13.1068 35.5791C13.2268 35.5491 13.3468 35.5391 13.4668 35.5391C13.6068 35.5391 13.7168 35.5791 13.7868 35.6491C13.8568 35.7191 13.8868 35.8191 13.8668 35.9191C13.8368 36.0691 13.7668 36.1791 13.6768 36.2391C13.5868 36.2991 13.4868 36.3391 13.3968 36.3391C13.3068 36.3391 13.2368 36.3191 13.1668 36.2891C13.0968 36.2591 13.0268 36.2391 12.9268 36.2391C12.8468 36.2391 12.7568 36.2591 12.6568 36.2991C12.5668 36.3391 12.4668 36.3991 12.3768 36.4791C12.2868 36.5591 12.2068 36.6591 12.1368 36.7791C12.0668 36.8991 12.0168 37.0391 11.9768 37.1991L11.6168 38.7991C11.5868 38.9191 11.5268 39.0091 11.4368 39.0891C11.3368 39.1691 11.2368 39.2091 11.1068 39.2091L11.1268 39.2191Z" fill="#FFB803"/>
<path d="M102.167 20.5173C102.167 20.5173 102.037 20.4673 101.987 20.5173C101.307 21.1373 100.397 21.4273 99.5371 21.2973C99.4371 21.2873 99.3671 21.1873 99.3771 21.0873C99.5171 20.2173 100.067 19.4273 100.857 18.9573C100.857 18.9573 100.857 18.9573 100.867 18.9573C100.927 18.9073 100.937 18.8273 100.887 18.7773C98.7071 16.6873 96.8671 18.8073 96.1271 19.8773C96.0571 19.9773 96.0571 20.0973 96.1271 20.1873C96.1771 20.2573 96.2671 20.2973 96.3571 20.2873C96.8671 20.2473 97.3771 20.3473 97.8171 20.5573C95.1971 22.1273 95.2271 24.2673 95.3171 25.2373C95.3171 25.2873 95.3471 25.3373 95.3771 25.3773C95.4771 25.4873 95.6471 25.4873 95.7671 25.3773C96.7271 24.5673 98.7071 24.4273 99.7771 24.4273C100.517 24.4273 101.257 24.1473 101.837 23.6373C103.157 22.4373 102.457 20.9873 102.187 20.5373C102.187 20.5373 102.187 20.5273 102.177 20.5173H102.167Z" fill="#FFB803"/>
<path d="M11.8986 25.7688C11.7486 26.4188 11.4686 26.9988 11.0586 27.4988C10.6486 27.9988 10.1586 28.3887 9.58864 28.6687C9.01864 28.9487 8.42864 29.0887 7.80864 29.0987C7.18864 29.0987 6.65864 28.9687 6.20864 28.6887C5.76864 28.4087 5.44864 28.0287 5.26864 27.5287C5.07864 27.0287 5.05864 26.4587 5.20864 25.8087C5.35864 25.1587 5.62864 24.5788 6.04864 24.0788C6.45864 23.5788 6.94864 23.1888 7.51864 22.8988C8.08864 22.6088 8.67864 22.4688 9.29864 22.4688C9.91864 22.4688 10.4486 22.6088 10.8886 22.8888C11.3286 23.1688 11.6386 23.5588 11.8286 24.0588C12.0186 24.5588 12.0386 25.1287 11.8886 25.7787L11.8986 25.7688ZM10.4286 25.7688C10.5186 25.3588 10.5186 25.0087 10.4186 24.7087C10.3186 24.4087 10.1486 24.1787 9.89864 24.0087C9.64864 23.8387 9.35864 23.7587 9.01864 23.7587C8.67864 23.7587 8.33864 23.8487 8.01864 24.0187C7.69864 24.1887 7.41864 24.4188 7.18864 24.7188C6.95864 25.0187 6.78864 25.3687 6.69864 25.7787C6.60864 26.1787 6.61864 26.5288 6.71864 26.8188C6.81864 27.1188 6.98864 27.3488 7.23864 27.5188C7.47864 27.6888 7.77864 27.7688 8.11864 27.7688C8.45864 27.7688 8.79864 27.6787 9.11864 27.5087C9.43864 27.3387 9.71864 27.1087 9.94864 26.8087C10.1786 26.5087 10.3486 26.1587 10.4386 25.7587L10.4286 25.7688Z" fill="#FFB803"/>
<path d="M13.0895 28.9497C12.8795 28.9497 12.7195 28.8797 12.6095 28.7397C12.4995 28.5997 12.4695 28.4297 12.5195 28.2197L13.6295 23.2797C13.6795 23.0697 13.7795 22.8997 13.9595 22.7597C14.1295 22.6197 14.3195 22.5497 14.5395 22.5497C14.7495 22.5497 14.9095 22.6197 15.0195 22.7597C15.1295 22.8997 15.1595 23.0697 15.1095 23.2797L14.8595 24.3997L14.9495 23.5997C15.0795 23.4097 15.2395 23.2397 15.4095 23.0897C15.5895 22.9397 15.7795 22.8197 15.9795 22.7197C16.1795 22.6197 16.3895 22.5497 16.6095 22.4997C16.8295 22.4497 17.0295 22.4297 17.2395 22.4297C17.4895 22.4297 17.6795 22.4897 17.8195 22.6297C17.9595 22.7597 18.0095 22.9197 17.9595 23.1097C17.8995 23.3697 17.7895 23.5597 17.6195 23.6797C17.4495 23.7997 17.2895 23.8497 17.1295 23.8597C16.9695 23.8597 16.8395 23.8297 16.7195 23.7797C16.6095 23.7197 16.4695 23.6997 16.2995 23.6997C16.1495 23.6997 15.9995 23.7397 15.8295 23.7997C15.6595 23.8697 15.4995 23.9697 15.3395 24.1197C15.1795 24.2597 15.0395 24.4397 14.9095 24.6497C14.7795 24.8597 14.6895 25.1097 14.6295 25.3997L13.9895 28.2297C13.9395 28.4397 13.8395 28.6097 13.6695 28.7497C13.4995 28.8897 13.3095 28.9597 13.0895 28.9597V28.9497Z" fill="#FFB803"/>
<path d="M24.927 20.0491C25.137 20.0491 25.297 20.1191 25.407 20.2491C25.517 20.3791 25.547 20.5591 25.497 20.7691L23.837 28.1591C23.787 28.3691 23.687 28.5391 23.507 28.6791C23.327 28.8191 23.147 28.8891 22.927 28.8891C22.717 28.8891 22.557 28.8191 22.447 28.6791C22.337 28.5391 22.307 28.3691 22.357 28.1591L22.487 27.5691L22.737 27.6791C22.717 27.7791 22.627 27.9091 22.477 28.0591C22.327 28.2091 22.137 28.3491 21.917 28.4991C21.687 28.6391 21.427 28.7691 21.137 28.8691C20.847 28.9691 20.547 29.0191 20.237 29.0191C19.667 29.0191 19.187 28.8791 18.797 28.5991C18.397 28.3191 18.127 27.9291 17.977 27.4291C17.827 26.9291 17.817 26.3591 17.967 25.7191C18.117 25.0691 18.377 24.4891 18.757 23.9891C19.137 23.4891 19.577 23.0991 20.097 22.8091C20.617 22.5191 21.137 22.3791 21.687 22.3791C22.037 22.3791 22.347 22.4291 22.627 22.5291C22.897 22.6291 23.127 22.7591 23.307 22.9191C23.487 23.0791 23.617 23.2391 23.707 23.3991C23.787 23.5591 23.817 23.6991 23.787 23.8091L23.307 23.9691L24.027 20.7691C24.077 20.5591 24.177 20.3891 24.357 20.2491C24.527 20.1091 24.717 20.0391 24.937 20.0391L24.927 20.0491ZM20.727 27.7091C21.087 27.7091 21.427 27.6191 21.737 27.4391C22.047 27.2591 22.307 27.0191 22.527 26.7191C22.747 26.4191 22.897 26.0791 22.987 25.6991C23.077 25.3191 23.077 24.9791 22.987 24.6691C22.907 24.3691 22.747 24.1291 22.517 23.9591C22.287 23.7891 21.987 23.6991 21.627 23.6991C21.277 23.6991 20.947 23.7891 20.637 23.9691C20.327 24.1491 20.067 24.3891 19.847 24.6891C19.627 24.9891 19.477 25.3391 19.387 25.7191C19.307 26.0891 19.307 26.4291 19.387 26.7291C19.467 27.0291 19.627 27.2691 19.857 27.4391C20.087 27.6091 20.377 27.6991 20.727 27.6991V27.7091Z" fill="#FFB803"/>
<path d="M28.2301 28.9837C27.5301 28.9837 26.9601 28.8538 26.5101 28.5638C26.0601 28.2838 25.7601 27.9037 25.5901 27.4137C25.4201 26.9237 25.4101 26.3838 25.5501 25.7638C25.7101 25.0438 26.0001 24.4337 26.4101 23.9237C26.8201 23.4137 27.3001 23.0237 27.8501 22.7537C28.3901 22.4837 28.9401 22.3438 29.4801 22.3438C29.9001 22.3438 30.2701 22.4237 30.6101 22.5837C30.9401 22.7537 31.2201 22.9738 31.4401 23.2638C31.6601 23.5538 31.8101 23.8838 31.9001 24.2738C31.9801 24.6538 31.9801 25.0638 31.8801 25.4938C31.8301 25.6838 31.7201 25.8437 31.5401 25.9637C31.3701 26.0837 31.1801 26.1437 30.9801 26.1437L26.2901 26.1637L26.1901 24.9738L30.7001 24.9538L30.3801 25.1938L30.4501 24.8738C30.4901 24.6438 30.4501 24.4337 30.3401 24.2537C30.2301 24.0737 30.0701 23.9238 29.8701 23.8238C29.6701 23.7138 29.4401 23.6637 29.1901 23.6637C28.9401 23.6637 28.7101 23.6938 28.4801 23.7638C28.2501 23.8338 28.0401 23.9338 27.8601 24.0938C27.6701 24.2437 27.5001 24.4538 27.3501 24.7038C27.2001 24.9638 27.0901 25.2838 27.0001 25.6738C26.9001 26.1038 26.9101 26.4638 27.0301 26.7638C27.1501 27.0638 27.3301 27.2838 27.5901 27.4438C27.8401 27.5938 28.1401 27.6738 28.4701 27.6738C28.7701 27.6738 29.0201 27.6438 29.2101 27.5938C29.4001 27.5437 29.5601 27.4837 29.6801 27.4137C29.8101 27.3437 29.9201 27.2838 30.0201 27.2438C30.1801 27.1738 30.3301 27.1338 30.4601 27.1338C30.6401 27.1338 30.7801 27.1938 30.8701 27.3138C30.9601 27.4338 30.9901 27.5737 30.9501 27.7337C30.9001 27.9437 30.7401 28.1437 30.4701 28.3237C30.2201 28.5037 29.8901 28.6538 29.4701 28.7838C29.0601 28.9138 28.6401 28.9837 28.2301 28.9837Z" fill="#FFB803"/>
<path d="M33.0192 28.8481C32.8092 28.8481 32.6492 28.7781 32.5392 28.6381C32.4292 28.4981 32.3992 28.3281 32.4492 28.1181L33.5592 23.1781C33.6092 22.9681 33.7092 22.7981 33.8892 22.6581C34.0592 22.5181 34.2492 22.4481 34.4692 22.4481C34.6792 22.4481 34.8392 22.5181 34.9492 22.6581C35.0592 22.7981 35.0892 22.9681 35.0392 23.1781L34.7892 24.2981L34.8792 23.4981C35.0092 23.3081 35.1692 23.1381 35.3392 22.9881C35.5192 22.8381 35.7092 22.7181 35.9092 22.6181C36.1092 22.5181 36.3192 22.4481 36.5392 22.3981C36.7592 22.3481 36.9592 22.3281 37.1692 22.3281C37.4192 22.3281 37.6092 22.3981 37.7492 22.5281C37.8892 22.6581 37.9392 22.8181 37.8892 23.0081C37.8292 23.2681 37.7192 23.4581 37.5492 23.5781C37.3792 23.6981 37.2192 23.7481 37.0592 23.7581C36.8992 23.7581 36.7692 23.7281 36.6492 23.6781C36.5392 23.6181 36.3992 23.5981 36.2292 23.5981C36.0792 23.5981 35.9292 23.6381 35.7592 23.6981C35.5892 23.7681 35.4292 23.8681 35.2692 24.0181C35.1092 24.1581 34.9692 24.3381 34.8392 24.5481C34.7092 24.7581 34.6192 25.0081 34.5592 25.2981L33.9192 28.1281C33.8692 28.3381 33.7692 28.5081 33.5992 28.6481C33.4292 28.7881 33.2392 28.8581 33.0292 28.8581L33.0192 28.8481Z" fill="#FFB803"/>
<path d="M45.6697 22.2787C46.2397 22.2787 46.7297 22.4187 47.1197 22.6987C47.5097 22.9787 47.7897 23.3687 47.9397 23.8587C48.0897 24.3487 48.0997 24.9287 47.9497 25.5787C47.7997 26.2287 47.5397 26.8087 47.1597 27.3087C46.7797 27.8087 46.3397 28.1987 45.8297 28.4887C45.3197 28.7787 44.7897 28.9187 44.2297 28.9187C43.8997 28.9187 43.6097 28.8688 43.3397 28.7688C43.0797 28.6688 42.8497 28.5387 42.6697 28.3787C42.4897 28.2187 42.3597 28.0587 42.2697 27.8987C42.1897 27.7387 42.1597 27.5987 42.1797 27.4887L42.5997 27.3287L42.3997 28.1988C42.3497 28.4088 42.2497 28.5787 42.0797 28.7187C41.9097 28.8587 41.7197 28.9288 41.4997 28.9288C41.2897 28.9288 41.1297 28.8588 41.0197 28.7288C40.9097 28.5988 40.8797 28.4187 40.9297 28.2087L42.6097 20.6987C42.6597 20.4887 42.7597 20.3187 42.9397 20.1787C43.1097 20.0387 43.2997 19.9688 43.5197 19.9688C43.7297 19.9688 43.8897 20.0387 43.9997 20.1787C44.1097 20.3187 44.1397 20.4887 44.0897 20.6987L43.4097 23.7388L43.2297 23.6287C43.2497 23.5287 43.3397 23.3988 43.4897 23.2488C43.6397 23.0988 43.8297 22.9488 44.0597 22.8088C44.2897 22.6588 44.5397 22.5387 44.8197 22.4387C45.0997 22.3387 45.3797 22.2887 45.6697 22.2887V22.2787ZM45.1897 23.5887C44.8297 23.5887 44.4897 23.6787 44.1797 23.8587C43.8697 24.0387 43.6097 24.2788 43.3897 24.5688C43.1697 24.8688 43.0197 25.2088 42.9297 25.5888C42.8497 25.9588 42.8497 26.2988 42.9297 26.6088C43.0097 26.9188 43.1697 27.1587 43.3997 27.3287C43.6297 27.4987 43.9297 27.5888 44.2897 27.5888C44.6497 27.5888 44.9797 27.4988 45.2897 27.3188C45.5997 27.1388 45.8597 26.8988 46.0797 26.5888C46.2997 26.2788 46.4497 25.9388 46.5397 25.5688C46.6297 25.1888 46.6297 24.8488 46.5397 24.5487C46.4597 24.2487 46.2997 24.0187 46.0697 23.8387C45.8397 23.6687 45.5497 23.5788 45.1897 23.5788V23.5887Z" fill="#FFB803"/>
<path d="M54.7092 22.3438C54.9192 22.3438 55.0792 22.4138 55.1892 22.5538C55.2992 22.6938 55.3292 22.8638 55.2792 23.0738L54.1392 28.1538C53.9792 28.8838 53.6992 29.4738 53.3192 29.9038C52.9392 30.3438 52.4892 30.6538 51.9692 30.8438C51.4492 31.0337 50.8992 31.1338 50.3092 31.1338C50.0492 31.1338 49.7692 31.1137 49.4892 31.0737C49.1992 31.0337 48.9792 30.9737 48.8092 30.8937C48.5892 30.7937 48.4492 30.6637 48.3892 30.5037C48.3292 30.3538 48.3492 30.1837 48.4492 30.0037C48.5792 29.7737 48.7292 29.6138 48.9092 29.5338C49.0892 29.4538 49.2692 29.4437 49.4292 29.5037C49.5492 29.5437 49.7092 29.6038 49.8992 29.6838C50.0892 29.7638 50.3292 29.8037 50.6092 29.8037C50.9892 29.8037 51.3092 29.7538 51.5792 29.6538C51.8492 29.5538 52.0792 29.3838 52.2592 29.1538C52.4392 28.9238 52.5692 28.5938 52.6692 28.1938L52.8492 27.3937L53.0392 27.6838C52.8392 27.9438 52.6192 28.1638 52.3692 28.3338C52.1192 28.5038 51.8492 28.6338 51.5392 28.7238C51.2292 28.8138 50.8992 28.8538 50.5292 28.8638C50.0992 28.8638 49.7392 28.7737 49.4592 28.5737C49.1792 28.3837 48.9892 28.1138 48.8892 27.7638C48.7892 27.4138 48.7892 27.0237 48.8892 26.5737L49.6692 23.0837C49.7192 22.8737 49.8192 22.7038 49.9992 22.5638C50.1692 22.4238 50.3592 22.3538 50.5792 22.3538C50.7892 22.3538 50.9492 22.4238 51.0592 22.5638C51.1692 22.7038 51.1992 22.8737 51.1492 23.0837L50.4592 26.1437C50.3392 26.6637 50.3792 27.0237 50.5692 27.2337C50.7592 27.4437 51.0592 27.5438 51.4792 27.5438C51.7692 27.5438 52.0192 27.4838 52.2392 27.3838C52.4592 27.2738 52.6492 27.1138 52.7992 26.9038C52.9492 26.6938 53.0592 26.4338 53.1292 26.1338L53.8192 23.0738C53.8692 22.8638 53.9792 22.6938 54.1492 22.5538C54.3192 22.4138 54.5092 22.3438 54.7292 22.3438H54.7092Z" fill="#FFB803"/>
<path d="M59.7603 27.025C59.8303 27.025 59.9103 27.035 59.9903 27.055C60.0703 27.075 60.1603 27.125 60.2503 27.195C60.3703 27.295 60.5103 27.385 60.6903 27.465C60.8603 27.545 61.0803 27.585 61.3303 27.585C61.5803 27.585 61.8403 27.525 62.0903 27.395C62.3403 27.275 62.5703 27.095 62.7703 26.865C62.9703 26.635 63.1003 26.365 63.1703 26.045C63.2403 25.745 63.2303 25.495 63.1503 25.295C63.0703 25.095 62.9303 24.945 62.7503 24.845C62.5603 24.745 62.3503 24.695 62.1203 24.695C61.9403 24.695 61.7903 24.715 61.6603 24.745C61.5403 24.775 61.4103 24.815 61.2903 24.845C61.1703 24.885 61.0403 24.905 60.8903 24.905C60.7003 24.905 60.5703 24.845 60.5003 24.715C60.4303 24.585 60.4103 24.435 60.4503 24.265C60.4703 24.155 60.5203 24.055 60.5803 23.965C60.6403 23.875 60.7303 23.785 60.8503 23.675L63.5103 21.425L63.7803 21.695L60.7603 21.715C60.5603 21.715 60.4103 21.655 60.3103 21.525C60.2103 21.395 60.1803 21.235 60.2203 21.045C60.2603 20.865 60.3603 20.705 60.5203 20.585C60.6803 20.465 60.8603 20.395 61.0503 20.395L64.8103 20.375C65.0603 20.375 65.2403 20.435 65.3403 20.575C65.4403 20.715 65.4603 20.885 65.4203 21.085C65.4003 21.185 65.3503 21.295 65.2703 21.395C65.1903 21.495 65.1003 21.585 65.0003 21.665L62.3203 23.945L62.0803 23.545C62.1803 23.505 62.3103 23.465 62.4803 23.435C62.6503 23.405 62.7803 23.385 62.8903 23.385C63.3703 23.385 63.7703 23.505 64.0703 23.745C64.3703 23.985 64.5803 24.295 64.6803 24.685C64.7903 25.075 64.7903 25.485 64.6803 25.935C64.5503 26.525 64.3003 27.035 63.9303 27.465C63.5603 27.895 63.1103 28.225 62.5603 28.465C62.0203 28.695 61.4203 28.815 60.7603 28.825C60.4603 28.825 60.1703 28.795 59.8903 28.725C59.6103 28.655 59.3803 28.565 59.1903 28.445C59.0303 28.345 58.9303 28.245 58.9003 28.135C58.8603 28.015 58.8603 27.915 58.8803 27.805C58.9203 27.625 59.0303 27.445 59.2003 27.285C59.3703 27.125 59.5603 27.035 59.7603 27.035V27.025Z" fill="#FFB803"/>
<path d="M70.1367 22.1484C70.7067 22.1484 71.1967 22.2884 71.5867 22.5684C71.9767 22.8484 72.2567 23.2384 72.4067 23.7284C72.5567 24.2184 72.5667 24.7984 72.4167 25.4484C72.2667 26.0984 72.0067 26.6784 71.6267 27.1784C71.2467 27.6784 70.8067 28.0684 70.2967 28.3584C69.7867 28.6484 69.2567 28.7884 68.6967 28.7884C68.3667 28.7884 68.0767 28.7384 67.8067 28.6384C67.5467 28.5384 67.3167 28.4084 67.1367 28.2484C66.9567 28.0884 66.8267 27.9284 66.7367 27.7684C66.6567 27.6084 66.6267 27.4684 66.6467 27.3584L67.0667 27.1984L66.3667 30.3384C66.3167 30.5484 66.2067 30.7184 66.0367 30.8584C65.8667 30.9984 65.6767 31.0684 65.4567 31.0684C65.2467 31.0684 65.0867 30.9984 64.9767 30.8684C64.8667 30.7284 64.8367 30.5584 64.8867 30.3484L66.5267 23.0184C66.5767 22.8084 66.6767 22.6384 66.8567 22.4984C67.0267 22.3584 67.2167 22.2884 67.4367 22.2884C67.6467 22.2884 67.8067 22.3584 67.9167 22.4984C68.0267 22.6384 68.0567 22.8084 68.0067 23.0184L67.8767 23.6084L67.6967 23.4984C67.7167 23.3984 67.8067 23.2684 67.9567 23.1184C68.1067 22.9684 68.2967 22.8184 68.5267 22.6784C68.7567 22.5284 69.0067 22.4084 69.2867 22.3084C69.5667 22.2084 69.8467 22.1584 70.1367 22.1584V22.1484ZM69.6667 23.4684C69.3067 23.4684 68.9667 23.5584 68.6667 23.7384C68.3667 23.9184 68.0967 24.1584 67.8767 24.4484C67.6567 24.7484 67.5067 25.0884 67.4167 25.4684C67.3367 25.8384 67.3367 26.1884 67.4167 26.4884C67.4967 26.7984 67.6567 27.0384 67.8867 27.2084C68.1167 27.3784 68.4167 27.4684 68.7767 27.4684C69.1367 27.4684 69.4667 27.3784 69.7767 27.1984C70.0867 27.0184 70.3467 26.7784 70.5667 26.4684C70.7867 26.1584 70.9367 25.8184 71.0267 25.4484C71.1167 25.0684 71.1167 24.7284 71.0267 24.4284C70.9467 24.1284 70.7867 23.8984 70.5567 23.7184C70.3267 23.5484 70.0367 23.4584 69.6767 23.4584L69.6667 23.4684Z" fill="#FFB803"/>
<path d="M77.7886 22.1181C78.4486 22.1181 78.8886 22.2681 79.1386 22.5681C79.3786 22.8781 79.4986 23.2681 79.4886 23.7581L79.3086 23.6481L79.4486 23.4581C79.5886 23.2781 79.7886 23.0781 80.0386 22.8681C80.2886 22.6581 80.5786 22.4781 80.8986 22.3281C81.2186 22.1781 81.5686 22.1081 81.9286 22.0981C82.5186 22.0981 82.9386 22.2181 83.1886 22.4581C83.4386 22.7081 83.5786 23.0281 83.5986 23.4381C83.6186 23.8481 83.5786 24.3081 83.4686 24.8081L82.7786 27.8681C82.7286 28.0781 82.6186 28.2481 82.4486 28.3881C82.2786 28.5281 82.0886 28.5981 81.8686 28.5981C81.6486 28.5981 81.4986 28.5281 81.3886 28.3881C81.2786 28.2481 81.2486 28.0781 81.2986 27.8681L81.9886 24.8081C82.0486 24.5481 82.0686 24.3081 82.0486 24.0981C82.0286 23.8881 81.9486 23.7181 81.8086 23.5881C81.6686 23.4581 81.4286 23.3981 81.1186 23.3981C80.8086 23.3981 80.5286 23.4681 80.2786 23.5981C80.0286 23.7281 79.8286 23.8981 79.6686 24.1081C79.5086 24.3181 79.3986 24.5581 79.3486 24.8181L78.6586 27.8781C78.6086 28.0881 78.4986 28.2581 78.3286 28.3981C78.1586 28.5381 77.9686 28.6081 77.7486 28.6081C77.5286 28.6081 77.3786 28.5381 77.2686 28.3981C77.1586 28.2581 77.1286 28.0881 77.1786 27.8781L77.8686 24.8181C77.9286 24.5581 77.9486 24.3181 77.9286 24.1081C77.9086 23.8981 77.8286 23.7281 77.6886 23.5981C77.5486 23.4681 77.3186 23.4081 76.9986 23.4081C76.6886 23.4081 76.4086 23.4781 76.1586 23.6081C75.9086 23.7381 75.7086 23.9081 75.5486 24.1181C75.3886 24.3281 75.2786 24.5681 75.2186 24.8281L74.5286 27.8881C74.4786 28.0981 74.3786 28.2681 74.2086 28.4081C74.0386 28.5481 73.8486 28.6181 73.6286 28.6181C73.4186 28.6181 73.2586 28.5481 73.1486 28.4081C73.0386 28.2681 73.0086 28.0981 73.0586 27.8881L74.1686 22.9481C74.2186 22.7381 74.3286 22.5681 74.4986 22.4281C74.6686 22.2881 74.8586 22.2181 75.0786 22.2181C75.2886 22.2181 75.4486 22.2881 75.5586 22.4281C75.6686 22.5681 75.6986 22.7381 75.6486 22.9481L75.5286 23.4581L75.3586 23.4181C75.4586 23.2781 75.5986 23.1381 75.7586 22.9781C75.9286 22.8181 76.1186 22.6781 76.3386 22.5381C76.5586 22.3981 76.7886 22.2881 77.0386 22.2081C77.2886 22.1281 77.5486 22.0781 77.8186 22.0781L77.7886 22.1181Z" fill="#FFB803"/>
<path d="M19.2864 33.5213C19.9164 33.2013 20.5564 33.0412 21.2064 33.0312C21.8564 33.0312 22.4264 33.1813 22.9264 33.5013C23.4164 33.8113 23.7664 34.2413 23.9664 34.7812C24.1664 35.3212 24.2064 35.9113 24.0564 36.5413L23.0564 40.9912H20.3064L21.3664 36.2612C21.4264 36.0112 21.3764 35.8013 21.2464 35.6413C21.1064 35.4713 20.9164 35.3913 20.6664 35.3913C20.4164 35.3913 20.1964 35.4813 19.9864 35.6413C19.7764 35.8113 19.6464 36.0213 19.5864 36.2713L18.3364 41.4712C18.2964 41.7112 18.3364 41.9113 18.4464 42.0713C18.5664 42.2313 18.7464 42.3013 18.9864 42.2913L19.5064 42.2713C20.2664 42.2513 20.8764 42.4213 21.3164 42.7913C21.6664 43.0913 21.9064 43.5313 22.0364 44.1113C22.1664 44.6913 22.1564 45.3012 22.0164 45.9412L20.7064 51.4113V51.4313C20.5164 52.0213 20.1964 52.5712 19.7564 53.0612C19.3064 53.5512 18.7864 53.9412 18.1864 54.2212C17.5864 54.5012 16.9764 54.6512 16.3464 54.6512C15.7264 54.6512 15.1764 54.5212 14.7164 54.2412C14.2464 53.9612 13.8964 53.5812 13.6664 53.1012C13.4364 52.6213 13.3564 52.0812 13.4364 51.4912L14.5064 46.7313H17.2564L16.1964 51.4513C16.1464 51.6913 16.1864 51.8912 16.3164 52.0612C16.4464 52.2312 16.6364 52.3112 16.8864 52.3112C17.1364 52.3112 17.3664 52.2212 17.5764 52.0612C17.7864 51.8912 17.9264 51.6913 17.9764 51.4513L19.2564 46.0913C19.3664 45.5113 19.1464 45.2313 18.6064 45.2513H18.4264C17.7564 45.2813 17.1864 45.1313 16.7064 44.8213C16.2264 44.5113 15.8864 44.0912 15.6764 43.5612C15.4664 43.0312 15.4264 42.4613 15.5364 41.8613L16.7764 36.6012C16.9164 35.9612 17.2164 35.3812 17.6564 34.8312C18.1064 34.2912 18.6464 33.8512 19.2664 33.5312L19.2864 33.5213Z" fill="#FFB803"/>
<path d="M30.8847 33.2969L28.8847 54.2269H26.1847L26.4847 51.5569H24.4147L23.5047 54.2569H20.8047L28.1947 33.3069H30.8747L30.8847 33.2969ZM26.7347 48.9569L28.1347 39.5569L25.3347 48.9669H26.7347V48.9569Z" fill="#FFB803"/>
<path d="M36.4973 37.1862L32.6973 54.1462H30.0273L34.7273 33.2162L39.5773 33.1963L37.9273 46.4762L42.2573 33.1763L47.2673 33.1562L42.5673 54.0962H39.8673L43.7073 36.6763L37.5473 54.1162H34.8673L36.4873 37.1763L36.4973 37.1862Z" fill="#FFB803"/>
<path d="M48.3758 33.2019L53.7558 33.1719L53.1658 35.7919H50.4858L48.8758 42.9719H51.5558L50.9658 45.5819H48.2858L46.9658 51.5019H49.6458L49.0558 54.1119L43.6758 54.1419L48.3758 33.1919V33.2019Z" fill="#FFB803"/>
<path d="M64.4662 35.7506C64.4462 35.8906 64.3962 36.1406 64.3162 36.5206L61.1162 50.7206C61.0362 51.0806 60.9762 51.3306 60.9362 51.4706C60.7862 52.0106 60.6063 52.4506 60.4163 52.8006C59.9263 53.6606 59.1262 54.0906 58.0262 54.0906L53.4062 54.1106L58.1062 33.1606L62.8063 33.1406C63.8863 33.1406 64.4762 33.5606 64.5662 34.4306C64.6162 34.7906 64.5862 35.2406 64.4762 35.7606L64.4662 35.7506ZM57.7762 51.3006C58.1362 51.1206 58.3662 50.8006 58.4762 50.3306L61.4762 36.9406C61.5862 36.4606 61.4962 36.1406 61.2162 35.9706C61.0562 35.9006 60.9262 35.8606 60.8262 35.8606H60.7663H60.1862L56.7062 51.4006H57.2862C57.4262 51.4006 57.5862 51.3706 57.7962 51.2906L57.7762 51.3006Z" fill="#FFB803"/>
<path d="M71.5761 33.0938L69.5761 54.0238H66.8761L67.1761 51.3538H65.1061L64.1961 54.0537H61.4961L68.8861 33.1038H71.5661L71.5761 33.0938ZM67.4261 48.7438L68.8261 39.3438L66.0261 48.7537H67.4261V48.7438Z" fill="#FFB803"/>
<path d="M75.6072 42.2225L79.3172 33.0625H82.0172L75.5572 48.5725H75.5372L74.3172 54.0125H71.6172L72.8372 48.5925H72.8172L73.3072 33.1025H76.0072L75.6072 42.2325V42.2225Z" fill="#FFB803"/>
<path d="M84.5861 35.3794L88.7061 35.3594L88.2561 37.3694H86.2061L84.9761 42.8594H87.0261L86.5761 44.8594H84.5261L83.5161 49.3794H85.5661L85.1161 51.3794L80.9961 51.3994L84.5861 35.3894V35.3794Z" fill="#FFB803"/>
<path d="M95.5066 35.3125L91.6366 43.9225L91.9166 51.3325H89.8666L89.6566 48.1725L88.0366 51.3525H85.9766L89.5766 43.9525V35.3525L91.6266 35.3425L91.5566 39.7125L93.4566 35.3325H95.5066V35.3125Z" fill="#FFB803"/>
<path d="M101.156 37.2869C101.136 37.3869 101.106 37.5769 101.036 37.8569L99.6156 44.1969C99.5556 44.4769 99.5056 44.6669 99.4756 44.7669C99.3356 45.2269 99.1956 45.5669 99.0756 45.7869C98.7056 46.4369 98.1156 46.7669 97.3056 46.7769H95.8456L94.8256 51.3169H92.7656L96.3556 35.3169L99.8856 35.2969C100.686 35.2969 101.136 35.6169 101.216 36.2669C101.246 36.5469 101.216 36.8869 101.156 37.2869ZM97.1456 44.6369C97.4156 44.4969 97.5856 44.2569 97.6656 43.8969L98.9456 38.1769C99.0256 37.8169 98.9656 37.5769 98.7556 37.4369C98.6556 37.3769 98.5556 37.3569 98.4656 37.3569H98.4156H97.9556L96.3056 44.7269H96.7656C96.8756 44.7269 97.0056 44.7069 97.1456 44.6369Z" fill="#FFB803"/>
<path d="M101.947 46.8456L100.947 51.2856H98.8867L102.477 35.2856L106.007 35.2656C106.807 35.2656 107.257 35.5856 107.337 36.2356C107.367 36.5156 107.337 36.8556 107.277 37.2456C107.257 37.3456 107.227 37.5356 107.157 37.8156L105.997 43.0056C105.927 43.3056 105.787 43.6556 105.577 44.0456C105.367 44.4356 105.107 44.7856 104.807 45.0956C105.017 45.3056 105.117 45.5856 105.117 45.9156C105.117 46.2456 105.077 46.6356 104.977 47.0656L104.877 47.4956L104.277 51.2556H102.247L102.807 47.6456C102.847 47.4156 102.847 47.2456 102.807 47.1456C102.777 47.0456 102.707 46.9656 102.607 46.9056C102.507 46.8456 102.397 46.8256 102.277 46.8256H101.937L101.947 46.8456ZM104.867 37.4056C104.767 37.3456 104.667 37.3256 104.577 37.3256H104.527H104.067L102.537 44.1456H102.997C103.107 44.1456 103.237 44.1256 103.377 44.0556C103.647 43.9156 103.817 43.6756 103.897 43.3156L105.057 38.1456C105.137 37.7856 105.077 37.5456 104.867 37.4056Z" fill="#FFB803"/>
<path d="M108.727 35.2544L112.847 35.2344L112.397 37.2444H110.347L109.117 42.7344H111.167L110.717 44.7344H108.667L107.657 49.2544H109.707L109.257 51.2544L105.137 51.2744L108.727 35.2644V35.2544Z" fill="#FFB803"/>
<path d="M115.107 35.3466C115.587 35.0966 116.078 34.9766 116.578 34.9766C117.078 34.9766 117.517 35.0966 117.887 35.3366C118.267 35.5766 118.528 35.9066 118.688 36.3166C118.848 36.7266 118.868 37.1766 118.758 37.6666L117.997 41.0666H115.898L116.707 37.4466C116.747 37.2566 116.717 37.0966 116.607 36.9666C116.497 36.8366 116.358 36.7766 116.168 36.7766C115.978 36.7766 115.807 36.8366 115.648 36.9666C115.488 37.0966 115.387 37.2566 115.347 37.4466L114.398 41.4266C114.368 41.6066 114.398 41.7666 114.488 41.8866C114.578 42.0066 114.718 42.0666 114.898 42.0566H115.298C115.878 42.0266 116.347 42.1566 116.677 42.4366C116.947 42.6666 117.128 43.0066 117.228 43.4466C117.328 43.8866 117.327 44.3566 117.217 44.8466L116.217 49.0266C116.077 49.4966 115.838 49.9066 115.488 50.2866C115.148 50.6666 114.747 50.9566 114.287 51.1766C113.827 51.3966 113.358 51.5066 112.878 51.5066C112.408 51.5066 111.988 51.4066 111.628 51.1866C111.268 50.9766 110.998 50.6866 110.828 50.3166C110.648 49.9466 110.587 49.5366 110.647 49.0866L111.467 45.4466H113.567L112.758 49.0566C112.718 49.2366 112.757 49.3966 112.847 49.5166C112.947 49.6466 113.097 49.7066 113.287 49.7066C113.477 49.7066 113.647 49.6366 113.817 49.5166C113.977 49.3866 114.088 49.2366 114.128 49.0466L115.107 44.9466C115.187 44.4966 115.028 44.2866 114.618 44.3066H114.488C113.978 44.3266 113.538 44.2166 113.168 43.9766C112.798 43.7366 112.538 43.4166 112.378 43.0166C112.218 42.6166 112.188 42.1766 112.268 41.7166L113.217 37.6966C113.327 37.2066 113.548 36.7566 113.898 36.3466C114.237 35.9266 114.648 35.5966 115.128 35.3566L115.107 35.3466Z" fill="#FFB803"/>
<path d="M121.635 35.3153C122.115 35.0653 122.605 34.9453 123.105 34.9453C123.605 34.9453 124.045 35.0653 124.415 35.3053C124.795 35.5453 125.055 35.8753 125.215 36.2853C125.375 36.6953 125.395 37.1453 125.285 37.6353L124.525 41.0353H122.425L123.235 37.4153C123.275 37.2253 123.235 37.0653 123.135 36.9353C123.025 36.8053 122.885 36.7453 122.695 36.7453C122.505 36.7453 122.335 36.8053 122.175 36.9353C122.015 37.0653 121.915 37.2253 121.875 37.4153L120.925 41.3953C120.895 41.5753 120.925 41.7353 121.015 41.8553C121.105 41.9753 121.245 42.0353 121.425 42.0253H121.825C122.405 41.9953 122.875 42.1253 123.205 42.4053C123.475 42.6353 123.655 42.9753 123.755 43.4153C123.855 43.8553 123.855 44.3253 123.745 44.8153L122.745 48.9953C122.605 49.4653 122.355 49.8753 122.015 50.2553C121.675 50.6353 121.275 50.9253 120.815 51.1453C120.355 51.3653 119.885 51.4753 119.405 51.4753C118.935 51.4753 118.515 51.3753 118.155 51.1553C117.795 50.9453 117.535 50.6553 117.355 50.2853C117.175 49.9153 117.115 49.5053 117.175 49.0553L117.995 45.4153H120.095L119.285 49.0253C119.245 49.2053 119.275 49.3653 119.375 49.4853C119.475 49.6153 119.625 49.6753 119.815 49.6753C120.005 49.6753 120.185 49.6053 120.345 49.4853C120.505 49.3653 120.615 49.2053 120.655 49.0153L121.635 44.9153C121.715 44.4653 121.555 44.2553 121.145 44.2753H121.015C120.505 44.2953 120.065 44.1853 119.695 43.9453C119.325 43.7053 119.065 43.3853 118.905 42.9853C118.745 42.5853 118.715 42.1453 118.795 41.6853L119.745 37.6653C119.855 37.1753 120.075 36.7253 120.425 36.3153C120.765 35.8953 121.175 35.5653 121.655 35.3253L121.635 35.3153Z" fill="#FFB803"/>
</svg>
