<svg width="12" height="14" viewBox="0 0 12 14" fill="none" xmlns="http://www.w3.org/2000/svg">
<path d="M3.7757 0.0635738C3.37642 0.213985 3.0838 0.525747 2.96621 0.925021C2.93613 1.02347 2.92245 1.18209 2.92245 1.38446V1.69349H2.00084C1.01086 1.69349 0.928817 1.70169 0.666281 1.83843C0.215046 2.06815 -0.0228771 2.4975 0.00173569 3.03899C0.00993995 3.26324 0.0236137 3.31793 0.111126 3.49842C0.245129 3.7719 0.439296 3.96607 0.712772 4.0946L0.926082 4.19579L0.931552 8.42098L0.939756 12.6462L1.01633 12.8595C1.2105 13.4119 1.64259 13.8249 2.1704 13.9589C2.30987 13.9944 2.77751 13.9999 5.67908 13.9999C8.64629 13.9999 9.04557 13.9944 9.19598 13.9561C9.63901 13.8413 10.0438 13.5104 10.2489 13.0947C10.454 12.6735 10.443 12.9497 10.443 8.32253C10.443 4.40089 10.4458 4.17938 10.4923 4.1657C10.6481 4.11374 10.856 3.99068 10.9708 3.88402C11.6983 3.20307 11.392 1.98611 10.4294 1.73451C10.2981 1.70169 10.0875 1.69349 9.35733 1.69349H8.44666V1.43642C8.44666 1.29695 8.43298 1.11645 8.41931 1.03441C8.35367 0.695302 8.11849 0.358928 7.82313 0.178433C7.51684 -0.00479507 7.55786 -0.00205994 5.65994 0.000674248H3.94799L3.7757 0.0635738ZM7.40471 0.730854C7.67272 0.875795 7.76023 1.04809 7.76297 1.42548V1.69349H5.68182H3.60067L3.61161 1.38446C3.61981 1.10825 3.62802 1.06723 3.69639 0.963307C3.78937 0.815631 3.94525 0.711711 4.11754 0.681628C4.18864 0.67069 4.9325 0.662485 5.7666 0.662485L7.28439 0.667954L7.40471 0.730854ZM10.3282 2.42093C10.711 2.57955 10.8067 3.05266 10.5169 3.34528C10.4512 3.41091 10.3528 3.47381 10.2899 3.49296C10.1395 3.53671 1.24331 3.54218 1.08196 3.49569C1.02453 3.48202 0.934287 3.43006 0.879592 3.38083C0.565095 3.10462 0.638933 2.60689 1.0218 2.42914C1.12572 2.37991 1.31168 2.37718 5.67908 2.37718C9.72925 2.37718 10.2379 2.38264 10.3282 2.42093ZM9.75934 8.31706C9.75934 11.7628 9.75387 12.4465 9.72105 12.5532C9.58705 12.9935 9.28896 13.2588 8.86507 13.3189C8.75021 13.3353 7.443 13.3408 5.54508 13.3381L2.41652 13.3299L2.26064 13.267C1.9817 13.1548 1.75471 12.9032 1.64532 12.5887C1.60157 12.4657 1.5961 12.1484 1.59063 8.33073L1.57969 4.20946H5.67088H9.75934V8.31706Z" fill="#151515"/>
<path d="M3.58931 5.10082C3.40061 5.1938 3.41428 4.94767 3.41428 8.51106V11.7244L3.48539 11.8092C3.67955 12.0416 4.04054 11.924 4.0843 11.6123C4.0925 11.5494 4.09797 10.1 4.0925 8.39346C4.0843 5.36609 4.0843 5.28678 4.0296 5.21021C3.93662 5.07074 3.74519 5.02151 3.58931 5.10082Z" fill="#151515"/>
<path d="M5.5284 5.10082C5.47917 5.12543 5.41901 5.17739 5.39166 5.21842C5.34517 5.28678 5.34244 5.45907 5.33423 8.39346C5.32876 10.1 5.33423 11.5494 5.34244 11.6123C5.38619 11.924 5.74718 12.0416 5.94135 11.8092L6.01245 11.7244V8.51106C6.01245 4.93947 6.02613 5.19107 5.83196 5.09809C5.72257 5.04613 5.63779 5.04613 5.5284 5.10082Z" fill="#151515"/>
<path d="M7.46147 5.10379C7.40678 5.13114 7.34388 5.19404 7.31653 5.24873C7.27278 5.33898 7.27004 5.53862 7.27551 8.53044C7.28371 11.4457 7.28645 11.7219 7.33021 11.7793C7.40404 11.886 7.48335 11.927 7.61188 11.927C7.76777 11.927 7.8881 11.845 7.92638 11.7082C7.94826 11.6371 7.95373 10.6307 7.94826 8.42925L7.94006 5.24873L7.85801 5.16943C7.75136 5.06277 7.59274 5.03542 7.46147 5.10379Z" fill="#151515"/>
</svg>
