<svg width="20" height="20" viewBox="0 0 20 20" fill="none" xmlns="http://www.w3.org/2000/svg">
<path d="M0.204523 6.89C0.0145227 7.14 -0.0454774 7.46 0.0345226 7.76L2.83452 18.02C3.07452 18.89 3.86452 19.49 4.76452 19.49H15.2345C16.1345 19.49 16.9245 18.88 17.1645 18.02L19.9645 7.76C20.0445 7.46 19.9845 7.14 19.7945 6.89C19.7019 6.76842 19.5824 6.66994 19.4453 6.60228C19.3082 6.53462 19.1574 6.49961 19.0045 6.5H17.5845L13.8745 0L12.1345 0.99L15.2845 6.49H4.71452L7.86452 0.99L6.12452 0L2.41452 6.5H0.994523C0.841805 6.50037 0.691199 6.53571 0.554259 6.60331C0.417318 6.67092 0.297681 6.76899 0.204523 6.89ZM10.9945 10.5H12.9945V15.5H10.9945V10.5ZM6.99452 10.5H8.99452V15.5H6.99452V10.5Z" fill="black"/>
</svg>
